<svg width="252" height="40" fill="none" xmlns="http://www.w3.org/2000/svg"><g clip-path="url(#clip0)"><path d="M154 35h98" stroke="#4D4D4D" stroke-width=".5"/><path d="M46.34 38.06a.486.486 0 01-.36-.132.529.529 0 01-.131-.372V30.02a.47.47 0 01.132-.348.529.529 0 01.372-.132h4.368c.144 0 .256.036.336.108.08.072.12.176.12.312 0 .128-.04.228-.12.3a.485.485 0 01-.336.108h-3.9v2.916h3.66c.144 0 .256.036.336.108.08.072.12.176.12.312 0 .128-.04.228-.12.3a.485.485 0 01-.336.108h-3.66v3.444a.529.529 0 01-.132.372c-.08.088-.196.132-.348.132zm10.367-6.024c.152 0 .268.044.348.132a.47.47 0 01.132.348v5.076a.455.455 0 01-.132.336c-.08.088-.196.132-.348.132a.497.497 0 01-.348-.12.48.48 0 01-.12-.336v-.6c-.184.352-.444.62-.78.804-.328.184-.7.276-1.116.276-.696 0-1.22-.192-1.572-.576-.352-.392-.528-.968-.528-1.728v-3.264a.47.47 0 01.132-.348.486.486 0 01.36-.132c.152 0 .268.044.348.132a.47.47 0 01.132.348v3.24c0 .52.104.904.312 1.152.208.24.536.36.984.36.512 0 .924-.164 1.236-.492.312-.336.468-.776.468-1.32v-2.94a.47.47 0 01.132-.348.486.486 0 01.36-.132zm2.779 6.024a.543.543 0 01-.36-.12.486.486 0 01-.132-.36v-7.62c0-.152.044-.268.132-.348a.513.513 0 01.36-.132c.136 0 .248.044.336.132.096.08.144.196.144.348v7.62a.464.464 0 01-.144.36.48.48 0 01-.336.12zm2.789 0a.543.543 0 01-.36-.12.486.486 0 01-.132-.36v-7.62c0-.152.044-.268.132-.348a.513.513 0 01.36-.132c.136 0 .248.044.336.132.096.08.144.196.144.348v7.62a.464.464 0 01-.144.36.48.48 0 01-.336.12zm4.265.024c-.368 0-.72-.044-1.056-.132a3.213 3.213 0 01-.876-.372 1.394 1.394 0 01-.312-.264.569.569 0 01-.084-.312c0-.104.028-.188.084-.252a.308.308 0 01.24-.108c.096 0 .236.06.42.18.24.144.476.26.708.348.24.08.536.12.888.12.432 0 .768-.076 1.008-.228a.735.735 0 00.36-.66.629.629 0 00-.132-.42c-.088-.112-.24-.208-.456-.288a5.897 5.897 0 00-.948-.264c-.704-.152-1.208-.356-1.512-.612-.304-.256-.456-.604-.456-1.044 0-.344.096-.648.288-.912.192-.264.456-.472.792-.624a2.851 2.851 0 011.164-.228c.312 0 .612.044.9.132.296.08.556.196.78.348.272.192.408.392.408.6a.383.383 0 01-.096.264.296.296 0 01-.228.108c-.096 0-.24-.068-.432-.204a3.798 3.798 0 00-.636-.336c-.2-.08-.448-.12-.744-.12-.376 0-.68.084-.912.252a.798.798 0 00-.336.672c0 .176.04.32.12.432.088.104.228.2.42.288.2.08.484.16.852.24.544.12.964.252 1.26.396.304.144.52.32.648.528.128.208.192.472.192.792 0 .504-.212.912-.636 1.224-.424.304-.984.456-1.68.456zm6.439-.792c.28.024.42.152.42.384 0 .136-.052.24-.156.312-.096.064-.244.088-.444.072l-.324-.024c-.64-.048-1.112-.24-1.416-.576-.304-.336-.456-.844-.456-1.524v-3.012h-.804a.504.504 0 01-.324-.096.374.374 0 01-.108-.276.39.39 0 01.108-.288.466.466 0 01.324-.108h.804V30.8c0-.152.044-.268.132-.348a.486.486 0 01.36-.132.47.47 0 01.348.132c.088.08.132.196.132.348v1.356h1.332c.128 0 .228.036.3.108.08.072.12.168.12.288 0 .112-.04.204-.12.276a.436.436 0 01-.3.096h-1.332v3.06c0 .44.088.76.264.96.184.192.456.3.816.324l.324.024zm3.766-5.28c1.464 0 2.196.768 2.196 2.304v3.264a.47.47 0 01-.132.348.431.431 0 01-.336.132.47.47 0 01-.348-.132.47.47 0 01-.132-.348v-.576a1.751 1.751 0 01-.696.804 2.086 2.086 0 01-1.08.276c-.376 0-.724-.076-1.044-.228a1.864 1.864 0 01-.744-.636 1.572 1.572 0 01-.276-.9c0-.44.112-.78.336-1.02.224-.248.592-.424 1.104-.528.512-.112 1.224-.168 2.136-.168h.264v-.396c0-.48-.1-.832-.3-1.056-.192-.224-.508-.336-.948-.336-.544 0-1.096.148-1.656.444-.216.136-.368.204-.456.204a.308.308 0 01-.24-.108.4.4 0 01-.096-.276c0-.112.032-.208.096-.288.072-.088.184-.176.336-.264.28-.16.596-.284.948-.372.36-.096.716-.144 1.068-.144zm-.396 5.304c.48 0 .872-.16 1.176-.48.312-.328.468-.748.468-1.26v-.348h-.216c-.704 0-1.24.032-1.608.096-.368.056-.632.156-.792.3-.152.136-.228.34-.228.612 0 .312.112.572.336.78.232.2.52.3.864.3zm6.783.768a2.822 2.822 0 01-1.452-.372c-.416-.248-.74-.6-.972-1.056-.224-.456-.336-.984-.336-1.584 0-.6.116-1.132.348-1.596.24-.464.572-.824.996-1.08.424-.256.912-.384 1.464-.384.304 0 .604.044.9.132.304.08.568.2.792.36a.945.945 0 01.3.288.497.497 0 01.096.3.4.4 0 01-.096.276.273.273 0 01-.228.108.405.405 0 01-.18-.048 1.57 1.57 0 01-.168-.096 3.72 3.72 0 00-.684-.384 1.717 1.717 0 00-.684-.12c-.584 0-1.04.2-1.368.6-.32.392-.48.94-.48 1.644s.16 1.248.48 1.632c.328.384.784.576 1.368.576.272 0 .504-.04.696-.12.2-.08.4-.188.6-.324.088-.056.172-.104.252-.144.08-.04.148-.06.204-.06.088 0 .16.036.216.108a.4.4 0 01.096.276c0 .104-.028.2-.084.288-.056.08-.16.172-.312.276a2.962 2.962 0 01-.816.372 3.476 3.476 0 01-.948.132zm7.998-.852c.129.12.193.248.193.384 0 .12-.044.224-.132.312a.389.389 0 01-.3.132c-.105 0-.213-.048-.325-.144l-3.132-2.7v2.364a.464.464 0 01-.144.36.48.48 0 01-.336.12.543.543 0 01-.36-.12.486.486 0 01-.131-.36v-7.62c0-.152.044-.268.132-.348a.513.513 0 01.36-.132c.136 0 .248.044.335.132.096.08.144.196.144.348v4.872l2.868-2.628a.448.448 0 01.324-.144c.12 0 .224.044.313.132a.427.427 0 01.132.312.478.478 0 01-.168.36l-2.365 2.112 2.593 2.256zm5.074.768a.529.529 0 01-.372-.132.47.47 0 01-.132-.348v-7.5a.47.47 0 01.132-.348.529.529 0 01.372-.132h2.34c1.352 0 2.396.368 3.132 1.104.744.728 1.116 1.768 1.116 3.12s-.372 2.396-1.116 3.132c-.744.736-1.788 1.104-3.132 1.104h-2.34zm2.28-.84c2.192 0 3.288-1.132 3.288-3.396 0-2.256-1.096-3.384-3.288-3.384h-1.8v6.78h1.8zm10.467-.516c.088 0 .164.036.228.108a.4.4 0 01.096.276c0 .2-.14.384-.42.552a3.805 3.805 0 01-.912.384c-.32.08-.632.12-.936.12-.904 0-1.62-.268-2.148-.804-.52-.536-.78-1.276-.78-2.22 0-.6.116-1.128.348-1.584.232-.464.556-.824.972-1.08a2.731 2.731 0 011.44-.384c.76 0 1.364.248 1.812.744.448.496.672 1.168.672 2.016 0 .16-.032.276-.096.348-.064.072-.168.108-.312.108h-3.864c.072 1.376.724 2.064 1.956 2.064.312 0 .58-.04.804-.12.224-.088.464-.204.72-.348.208-.12.348-.18.42-.18zm-2.1-3.876c-.512 0-.924.16-1.236.48-.304.32-.484.772-.54 1.356h3.396c-.016-.592-.164-1.044-.444-1.356-.28-.32-.672-.48-1.176-.48zm8.046-.432c.088-.192.228-.288.42-.288.12 0 .228.04.324.12.096.08.144.18.144.3a.38.38 0 01-.048.192l-2.34 5.04a.6.6 0 01-.216.252.609.609 0 01-.312.084.587.587 0 01-.3-.084.692.692 0 01-.228-.252l-2.328-5.04a.357.357 0 01-.048-.18c0-.12.052-.224.156-.312a.572.572 0 01.36-.132c.08 0 .156.024.228.072.08.048.14.116.18.204l2.004 4.5 2.004-4.476zm6.406 4.308c.088 0 .164.036.228.108a.4.4 0 01.096.276c0 .2-.14.384-.42.552a3.805 3.805 0 01-.912.384c-.32.08-.632.12-.936.12-.904 0-1.62-.268-2.148-.804-.52-.536-.78-1.276-.78-2.22 0-.6.116-1.128.348-1.584.232-.464.556-.824.972-1.08a2.731 2.731 0 011.44-.384c.76 0 1.364.248 1.812.744.448.496.672 1.168.672 2.016 0 .16-.032.276-.096.348-.064.072-.168.108-.312.108h-3.864c.072 1.376.724 2.064 1.956 2.064.312 0 .58-.04.804-.12.224-.088.464-.204.72-.348.208-.12.348-.18.42-.18zm-2.1-3.876c-.512 0-.924.16-1.236.48-.304.32-.484.772-.54 1.356h3.396c-.016-.592-.164-1.044-.444-1.356-.28-.32-.672-.48-1.176-.48zm4.396 5.292a.543.543 0 01-.36-.12.486.486 0 01-.132-.36v-7.62c0-.152.044-.268.132-.348a.513.513 0 01.36-.132c.136 0 .248.044.336.132.096.08.144.196.144.348v7.62a.464.464 0 01-.144.36.48.48 0 01-.336.12zm4.721.024c-.552 0-1.04-.124-1.464-.372-.416-.248-.74-.6-.972-1.056-.224-.464-.336-1-.336-1.608 0-.608.112-1.14.336-1.596.232-.464.556-.82.972-1.068.424-.248.912-.372 1.464-.372.552 0 1.04.124 1.464.372.424.248.748.604.972 1.068.232.456.348.988.348 1.596 0 .608-.116 1.144-.348 1.608a2.438 2.438 0 01-.972 1.056c-.424.248-.912.372-1.464.372zm0-.804c.576 0 1.016-.188 1.32-.564.312-.384.468-.94.468-1.668 0-.712-.156-1.26-.468-1.644-.312-.392-.752-.588-1.32-.588-.568 0-1.008.196-1.32.588-.312.384-.468.932-.468 1.644 0 .72.152 1.272.456 1.656.312.384.756.576 1.332.576zm7.172-5.268c.512 0 .964.128 1.356.384.392.256.696.616.912 1.08.216.456.324.988.324 1.596 0 .608-.108 1.14-.324 1.596-.216.448-.52.796-.912 1.044-.384.248-.836.372-1.356.372-.456 0-.856-.1-1.2-.3a1.939 1.939 0 01-.768-.852v2.82a.431.431 0 01-.132.336c-.08.088-.196.132-.348.132a.486.486 0 01-.36-.132.455.455 0 01-.132-.336v-7.236a.47.47 0 01.132-.348.486.486 0 01.36-.132c.152 0 .268.044.348.132a.47.47 0 01.132.348v.648c.176-.368.432-.652.768-.852.344-.2.744-.3 1.2-.3zm-.192 5.268c.568 0 1.008-.192 1.32-.576.312-.384.468-.928.468-1.632 0-.704-.156-1.252-.468-1.644-.312-.4-.752-.6-1.32-.6-.568 0-1.008.192-1.32.576-.304.384-.456.932-.456 1.644 0 .712.152 1.264.456 1.656.312.384.752.576 1.32.576zm8.761-.636c.088 0 .164.036.228.108a.4.4 0 01.096.276c0 .2-.14.384-.42.552a3.805 3.805 0 01-.912.384c-.32.08-.632.12-.936.12-.904 0-1.62-.268-2.148-.804-.52-.536-.78-1.276-.78-2.22 0-.6.116-1.128.348-1.584.232-.464.556-.824.972-1.08a2.731 2.731 0 011.44-.384c.76 0 1.364.248 1.812.744.448.496.672 1.168.672 2.016 0 .16-.032.276-.096.348-.064.072-.168.108-.312.108h-3.864c.072 1.376.724 2.064 1.956 2.064.312 0 .58-.04.804-.12.224-.088.464-.204.72-.348.208-.12.348-.18.42-.18zm-2.1-3.876c-.512 0-.924.16-1.236.48-.304.32-.484.772-.54 1.356h3.396c-.016-.592-.164-1.044-.444-1.356-.28-.32-.672-.48-1.176-.48zm6.796-.732c.336-.024.504.112.504.408a.449.449 0 01-.108.312c-.072.072-.196.116-.372.132l-.36.036c-.536.048-.936.24-1.2.576a1.836 1.836 0 00-.384 1.164v2.916c0 .16-.044.28-.132.36a.497.497 0 01-.348.12.543.543 0 01-.36-.12.486.486 0 01-.132-.36v-5.064c0-.152.048-.268.144-.348a.497.497 0 01.348-.132.44.44 0 01.324.132c.088.08.132.192.132.336v.672c.168-.352.404-.62.708-.804a2.458 2.458 0 011.068-.324l.168-.012zM65.836 17.64c-.02.209-.094.37-.219.485a.656.656 0 01-.484.188.931.931 0 01-.297-.047 2.133 2.133 0 01-.703.359c-.271.083-.526.167-.766.25a7.76 7.76 0 01-.86-.078 4.054 4.054 0 00-.874-.031.826.826 0 00-.328-.141 3.757 3.757 0 00-.36-.047c-.114 0-.229-.015-.343-.047a.716.716 0 01-.313-.218h-.781c-.073 0-.183-.037-.328-.11-.136-.062-.292-.13-.47-.203a5.49 5.49 0 00-.546-.203 1.683 1.683 0 00-.531-.094h-.094a1.268 1.268 0 00-.406-.219 25.723 25.723 0 00-.453-.125 5.761 5.761 0 01-.453-.109 1.245 1.245 0 01-.375-.172 3.633 3.633 0 00-.36-.219.695.695 0 00-.422-.109 4.303 4.303 0 00-.625-.297 11.628 11.628 0 00-.64-.234l-.64-.235a5.658 5.658 0 01-.626-.296.195.195 0 01-.11 0 .46.46 0 00-.109-.016c-.062 0-.099.02-.11.062a1.12 1.12 0 00-.25-.187 1.965 1.965 0 01-.25-.188l-.124.032h-.125c-.094 0-.188-.01-.281-.032a2.306 2.306 0 01-.25-.078 2.4 2.4 0 00-.188.703c-.031.26-.057.532-.078.813-.01.27-.026.541-.047.812-.02.282-.067.537-.14.766.02.083.03.167.03.25v.266c0 .177.027.317.079.422-.02.093-.042.182-.063.265-.01.084-.026.167-.046.25.01.115.015.219.015.313.01.104.016.213.016.328v.265c0 .094-.01.188-.031.282a4.68 4.68 0 01-.313.172 2.838 2.838 0 00-.312.218c-.073-.135-.198-.213-.375-.234a.524.524 0 00-.094.203c-.01.094-.058.14-.14.14a85.841 85.841 0 00-.36-.28 1.927 1.927 0 01-.313-.329.174.174 0 01-.015-.078.31.31 0 01.03-.14.277.277 0 00.032-.125c0-.125-.015-.235-.047-.329a5.451 5.451 0 01-.062-.78c0-.178.01-.35.031-.517.031-.166.083-.338.156-.515.115-.302.193-.62.235-.953.052-.334.088-.667.11-1 .02-.344.03-.688.03-1.032.01-.343.032-.671.063-.984a1.12 1.12 0 00-.266-.39c-.094-.105-.14-.266-.14-.485 0-.198.062-.349.187-.453.125-.115.234-.25.328-.406-.02-.063-.005-.104.047-.125l.188-1.64c.01-.116.026-.24.046-.376.032-.135.052-.26.063-.375.02-.24.031-.474.031-.703 0-.23.01-.458.031-.688.052-.51.1-1.015.141-1.515.052-.5.078-1 .078-1.5 0-.24-.01-.48-.031-.719-.01-.24-.042-.479-.094-.719-.177.052-.375.11-.594.172a1.19 1.19 0 00-.53.282h-.126c-.27 0-.526.052-.765.156-.23.104-.464.203-.704.297a1.242 1.242 0 01-.312.109c-.104.01-.214.031-.328.063a.406.406 0 00-.172.093.665.665 0 01-.172.11l-.266.062c-.073.021-.104.068-.093.14.01.074-.016.12-.078.141a.296.296 0 01-.22.079 2.115 2.115 0 00-.218-.016h-.062c-.26.187-.51.349-.75.484-.25.125-.542.209-.875.25L43.133 7a.712.712 0 01-.39.11.563.563 0 01-.282-.063 1.41 1.41 0 01-.188-.422 1.023 1.023 0 00-.25-.406.426.426 0 00.11-.203c.01-.094.026-.177.047-.25.312-.136.63-.266.953-.391.312-.125.614-.276.906-.453a.796.796 0 00.422-.031c.083-.032.167-.068.25-.11a2.61 2.61 0 01.25-.11.67.67 0 01.297-.03 6.01 6.01 0 011.125-.485c.396-.125.77-.297 1.125-.515.052 0 .094.01.125.03.041.022.083.032.125.032.041 0 .067-.005.078-.015a.474.474 0 01.25-.172c.104-.042.208-.073.312-.094.115-.031.22-.068.313-.11a.376.376 0 00.203-.234c.052.042.13.063.234.063.177 0 .339-.037.485-.11.156-.073.323-.11.5-.11.041 0 .078.011.11.032.04.01.082.016.124.016.084 0 .125-.026.125-.078a.242.242 0 01.094-.141 64.98 64.98 0 011.89-.313c.636-.093 1.277-.14 1.922-.14a.551.551 0 01.313-.094c.114 0 .219.031.312.094a9.138 9.138 0 011.063-.063c.406 0 .823.026 1.25.079.427.052.849.135 1.266.25.427.104.833.25 1.218.437.386.177.745.39 1.078.64.032.094.073.188.125.282.052.094.12.167.204.219 0 .02-.006.036-.016.046v.047c0 .115.031.224.094.329.073.104.11.229.11.375 0 .145-.027.291-.08.437a1.255 1.255 0 00-.046.438c-.114.166-.214.317-.297.453-.073.135-.12.307-.14.515a3.655 3.655 0 00-.5.625c-.146.219-.297.438-.454.657a3.756 3.756 0 01-.5.578 2.105 2.105 0 01-.671.421.87.87 0 01-.125.344h-.329a.35.35 0 01-.156.188l-.219.125a.683.683 0 00-.187.156.477.477 0 00-.063.266.174.174 0 00-.078-.016c-.104 0-.229.052-.375.156-.135.104-.245.188-.328.25-.177.125-.36.24-.547.344-.177.104-.333.25-.468.438a8.046 8.046 0 00-1.188.624c-.375.23-.781.412-1.219.547a1.866 1.866 0 01-.593.422 7.29 7.29 0 00-.641.313v.047c0 .083.031.166.094.25.062.072.135.14.218.203a.845.845 0 00.266.11c.104.02.193.02.266 0 .208.187.448.338.718.452.271.115.552.219.844.313.292.094.578.193.86.297.28.104.541.234.78.39h.376c.24.209.52.365.844.469.333.104.65.198.953.281.125.115.28.203.468.266.198.052.386.078.563.078h.094a.347.347 0 00.11-.016v.032c0 .052.015.088.046.109l.094.031c.041 0 .078.01.11.032.04.01.072.03.093.062h.156c.219 0 .427.047.625.14.198.084.406.126.625.126a.61.61 0 00.219-.032c.062.021.11.063.14.125a.462.462 0 00.125.157c.073-.01.141-.021.204-.032h.187c.23 0 .443.026.64.078.199.053.402.13.61.235.333-.146.662-.266.984-.36.323-.093.667-.14 1.032-.14v.031c0 .125.03.24.093.344.073.114.136.229.188.344zM59.852 5.173a.502.502 0 00-.079-.297.587.587 0 00-.171-.188 1.947 1.947 0 00-.235-.171.938.938 0 01-.203-.204c-.27-.083-.536-.177-.797-.28a7.148 7.148 0 00-.797-.266 5.581 5.581 0 00-.406-.079 1.803 1.803 0 00-.406-.046h-.344l-.203-.032a1.234 1.234 0 00-.188-.046 6.23 6.23 0 00-.859-.063c-.27 0-.542.01-.812.031l-.813.063c-.114.01-.234.015-.36.015-.124 0-.239.01-.343.032a1.14 1.14 0 00-.219.078 5.401 5.401 0 00-.297.11 3.72 3.72 0 00-.312.108 1.938 1.938 0 01-.25.094c.01.073.015.146.015.219v.203c0 .156-.005.313-.015.469-.01.156-.031.312-.063.469-.01.062-.026.125-.047.187-.02.063-.036.125-.046.188-.021.093-.032.198-.032.312v.297c-.02.24-.036.474-.047.703-.01.23-.026.464-.046.703-.063.688-.13 1.37-.204 2.047-.062.677-.104 1.36-.125 2.047.344-.073.672-.182.985-.328.312-.146.62-.302.922-.469.302-.177.604-.349.906-.515.302-.167.62-.308.953-.422.083-.115.182-.209.297-.282.125-.073.23-.166.312-.28.105 0 .183-.022.235-.063a.426.426 0 01.203-.11c.5-.437 1.01-.849 1.531-1.234.521-.386 1.021-.797 1.5-1.235.042-.145.11-.286.203-.421.105-.146.203-.292.297-.438.094-.146.177-.292.25-.437.073-.146.11-.302.11-.47zm12.703 10.687a.655.655 0 01-.203.36 1.114 1.114 0 01-.344.203 1.929 1.929 0 01-.422.11c-.135.01-.26.015-.375.015h-.156a.582.582 0 00-.14-.016c-.053 0-.08.026-.08.078 0 .052-.025.089-.077.11a.886.886 0 00-.313-.063c-.073 0-.145.006-.218.016a1.14 1.14 0 01-.188.015.434.434 0 01-.187-.03l-.094-.063a.617.617 0 00-.078-.094.228.228 0 00-.11-.078c-.073-.031-.135-.037-.187-.016-.042.021-.11-.01-.203-.093a1.633 1.633 0 01-.328-.375 20.384 20.384 0 01-.25-.485 11.697 11.697 0 00-.266-.5 2.002 2.002 0 00-.328-.437h-.125c-.188 0-.318.078-.39.234a1.411 1.411 0 01-.157-.11.658.658 0 00-.172-.124c-.24.072-.49.135-.75.187-.26.052-.52.078-.781.078h-.219a.745.745 0 01-.203-.031 1.228 1.228 0 00-.281.156.52.52 0 01-.282.078.504.504 0 01-.218-.062c-.063 0-.094.026-.094.078.01.052-.02.078-.094.078h-.14c-.146 0-.292.005-.438.016-.135.01-.276.015-.422.015-.198 0-.4-.026-.61-.078a.328.328 0 01-.171.047.198.198 0 00-.094.11l-.062.124a.395.395 0 01-.094.094c-.031.021-.078.026-.14.016a.486.486 0 01-.157.297c-.083.073-.125.182-.125.328a.89.89 0 00-.281.234 7.419 7.419 0 00-.219.297 3.286 3.286 0 01-.234.297.734.734 0 01-.282.219c-.052.062-.067.161-.046.297a1.803 1.803 0 01-.422.25c-.167.073-.323.109-.47.109-.301 0-.51-.162-.624-.484 0-.104.01-.214.031-.328.01-.125.031-.24.063-.344a.87.87 0 01.14-.297.524.524 0 01.266-.203c0-.094-.031-.157-.094-.188-.062-.041-.088-.11-.078-.203.281-.135.526-.312.734-.531.209-.219.396-.448.563-.688l.531-.75c.177-.25.375-.474.594-.671v-.329c.312-.333.516-.708.61-1.125.114-.02.187-.072.218-.156a.658.658 0 00.063-.297c.052 0 .083-.02.093-.062.021-.052.068-.068.14-.047.095-.25.199-.48.313-.688l.344-.625c.115-.218.214-.442.297-.671.094-.23.162-.485.203-.766.146-.01.224-.078.235-.203a8.1 8.1 0 01.062-.36c.156-.145.27-.317.344-.515.083-.198.156-.401.219-.61.062-.218.13-.432.203-.64.083-.219.198-.412.343-.578v-.047c0-.052-.02-.084-.062-.094-.042-.02-.063-.057-.063-.11.01-.01.016-.02.016-.03a.551.551 0 00.281-.25.538.538 0 01.282-.266c.218.177.411.286.578.328.166.031.385.057.656.078a.815.815 0 01.219.531c.02.198.057.396.11.594.082.333.17.661.265.984.104.313.182.636.234.97.031.197.089.385.172.562.083.177.14.359.172.546.02.146.02.313 0 .5a.86.86 0 00.062.47l.11.25c.052.114.093.234.125.359.041.125.078.25.11.375.082.312.155.65.218 1.015.073.354.182.677.328.969.052.104.13.177.234.219.115.041.24.073.375.094.136.01.266.015.39.015.136-.01.25-.015.345-.015h.156c.062 0 .125.01.187.03a.503.503 0 01.063.22.374.374 0 01-.125.296.326.326 0 00-.125.25c0 .053.02.11.062.172a.833.833 0 00-.187-.015c-.24 0-.474.041-.703.125.083.177.193.328.328.453.146.114.297.224.453.328a.518.518 0 01.328-.125c.125 0 .24.031.344.094a.859.859 0 00.36.078c.093 0 .16-.016.202-.047.084.094.151.193.204.297.052.094.12.182.203.265zm-4.89-2.5c-.022-.177-.058-.302-.11-.375a1.622 1.622 0 01-.11-.296 3.102 3.102 0 01-.093-.47 3.639 3.639 0 00-.063-.484 19.69 19.69 0 00-.25-1.062 6.986 6.986 0 00-.328-1.031.317.317 0 00.062-.172v-.047a.937.937 0 01-.203-.375 26.548 26.548 0 00-.125-.453 1.671 1.671 0 00-.14-.422.68.68 0 00-.266-.328.483.483 0 00-.047.218c0 .073.005.141.016.204a.64.64 0 01.031.203.5.5 0 00-.234.25.508.508 0 01-.22.25 4.38 4.38 0 01-.358.953c-.157.291-.323.583-.5.875a24.06 24.06 0 00-.485.89 4.747 4.747 0 00-.375.922.728.728 0 00-.281.36 1.588 1.588 0 00-.063.437.782.782 0 00.313.094h.36c.114 0 .223.01.327.031.105.021.198.073.282.156.135-.041.28-.067.437-.078a.893.893 0 00.406-.14c.209.073.433.11.672.11.125 0 .245-.011.36-.032.125-.021.244-.047.36-.078.093.02.166.057.218.11.052.04.13.056.234.046a.247.247 0 00.094-.125.272.272 0 01.078-.14zM82.93 9.297c0 .104-.037.172-.11.203-.073.031-.11.094-.11.188 0 .03.011.057.032.078.021.02.031.052.031.093v.063a5.851 5.851 0 01-.546 1.578c-.23.448-.5.86-.813 1.234-.312.375-.667.73-1.062 1.063a55.094 55.094 0 01-1.641 1.36 5.35 5.35 0 00-.36.327l-.343.329a.972.972 0 01-.172.078 1.798 1.798 0 00-.188.062 8.82 8.82 0 00-.468.219 1.508 1.508 0 00-.407.312c-.208 0-.385.032-.53.094a4.366 4.366 0 00-.485.25.31.31 0 01-.14-.031 1.007 1.007 0 00-.11-.063.31.31 0 00-.14-.03.348.348 0 00-.173.015 2.739 2.739 0 00-.406-.532c-.146-.145-.344-.234-.594-.265a.648.648 0 00-.218-.406 9.91 9.91 0 01-.344-.329 1.154 1.154 0 01-.047-.218.86.86 0 00-.063-.235.59.59 0 00-.125-.187.295.295 0 00-.218-.078c-.01-.063.015-.094.078-.094.062 0 .094-.026.094-.078a.59.59 0 00-.032-.188.64.64 0 01-.015-.343 1.1 1.1 0 01.047-.141 7.764 7.764 0 01-.047-.86c0-.562.036-1.114.11-1.656.082-.552.124-1.109.124-1.671 0-.25-.016-.5-.047-.75a3.518 3.518 0 00-.14-.735c-.24.052-.48.115-.72.188-.239.062-.463.15-.671.265a.783.783 0 00-.36-.125 2.373 2.373 0 01-.39-.094 1.002 1.002 0 01-.11-.453c0-.145.027-.286.079-.421l.156-.407c.25-.052.5-.13.75-.234a8.9 8.9 0 01.734-.281l.313-.079c.135-.03.229-.057.281-.078a.238.238 0 00.14-.171.714.714 0 01.126-.235h.265c.063 0 .13.005.203.016.073 0 .141.015.204.047.375-.094.75-.151 1.125-.172a24.4 24.4 0 001.156-.125c.041 0 .104-.005.187-.016l.266-.047c.094-.02.177-.036.25-.047a.863.863 0 01.172-.03c.031 0 .047.015.047.046h.265c.448 0 .886.057 1.313.172l1.281.344c.177.145.354.286.531.421.177.136.375.256.594.36.052.167.13.302.234.406.115.094.24.198.375.313.053.135.12.28.204.437.093.146.182.297.265.453.084.156.156.313.219.469.062.146.094.286.094.422zm-1.453.234c-.115-.24-.224-.49-.329-.75a3.053 3.053 0 00-.39-.703 7.41 7.41 0 01-.578-.187.71.71 0 01-.39-.422.268.268 0 01-.11.015.344.344 0 01-.25-.109.504.504 0 00-.25-.14l-.344-.048a5.128 5.128 0 00-.438-.046l-.468-.032a5.116 5.116 0 00-.344-.015 2.41 2.41 0 00-.266.015 2.41 2.41 0 00-.265.016c-.084 0-.136.016-.157.047a.34.34 0 01-.125.062.458.458 0 00-.171-.03h-.188c-.219 0-.437.036-.656.109a3.215 3.215 0 00-.625.265v.063c0 .083.036.13.11.14.072.01.114.052.124.125a.406.406 0 00-.125.016c-.031 0-.047.036-.047.11 0 .103.01.218.032.343.03.125.046.25.046.375 0 .094-.01.203-.03.328a.485.485 0 01-.157.297.48.48 0 01.156.375 1.142 1.142 0 01-.219.625c-.02.438-.062.88-.125 1.328-.062.448-.093.89-.093 1.328 0 .219.01.432.03.64.032.21.08.418.142.626.114.114.234.203.359.265.135.063.276.126.422.188v.047c0 .031-.021.062-.063.094a.148.148 0 00-.062.125c0 .041.02.062.062.062a8.63 8.63 0 001.235-.453 4.235 4.235 0 001.078-.719c.031-.031.062-.047.094-.047a1.506 1.506 0 01.188.047l-.017-.062c0-.063.016-.12.047-.172a.904.904 0 01.14-.14l.157-.141a.823.823 0 00.125-.157c.084-.02.14-.062.172-.125.042-.062.11-.093.203-.093a.339.339 0 01.172-.25.39.39 0 00.172-.266c.208-.115.39-.255.547-.422.166-.166.318-.344.453-.531.146-.188.281-.38.406-.578a8.35 8.35 0 01.39-.594v-.063c0-.166.027-.302.079-.406.062-.104.11-.229.14-.375zm5.515 5.328a1.328 1.328 0 01-.187.235c-.073.062-.14.13-.203.203a.63.63 0 01-.25.047h-.25a.764.764 0 00-.22 0 .212.212 0 00-.155.062.334.334 0 01-.188-.11c-.042-.062-.115-.098-.219-.108a.254.254 0 00-.125 0 5.805 5.805 0 01-.437-.563 60.95 60.95 0 00-.36-.563c-.01-.385-.041-.775-.093-1.171a2.643 2.643 0 00-.047-.282 2.914 2.914 0 01-.047-.265c0-.104.005-.203.016-.297.02-.104.036-.198.046-.281.042-.303.089-.6.141-.891.052-.292.099-.588.14-.89a5.54 5.54 0 00.063-.844c0-.302-.047-.584-.14-.844l-.016-.078a1.64 1.64 0 01.062-.203.658.658 0 00.063-.204c.02-.114-.005-.197-.078-.25.031-.083.083-.135.156-.156.073-.031.115-.093.125-.187a.254.254 0 000-.125c.083-.032.167-.058.25-.078A.468.468 0 0185.305 7a.84.84 0 01.36.14c.103.063.202.136.296.22.167.5.234 1.03.203 1.593-.031.552-.083 1.11-.156 1.672-.073.563-.12 1.115-.14 1.656-.022.531.062 1.026.25 1.485l.03.015a.116.116 0 00.125-.047c.032-.052.073-.072.125-.062.042.02.068.031.079.031.041.209.109.406.203.594.093.187.198.375.312.562zm10.063-8.984c0 .177-.01.349-.032.516-.01.156-.041.323-.093.5a1.217 1.217 0 00-.25.265l-.22.297a5.59 5.59 0 01-.233.281.955.955 0 01-.313.204c-.104.458-.234.9-.39 1.328a7.563 7.563 0 00-.329 1.312c-.125.23-.224.48-.297.75-.072.271-.15.547-.234.828-.073.271-.156.531-.25.781s-.224.475-.39.672c-.084.25-.167.521-.25.813a1.557 1.557 0 01-.422.703c.01.02.015.052.015.094a.74.74 0 01-.094.36.628.628 0 00-.093.327c-.167.125-.328.271-.485.438-.145.166-.297.333-.453.5a3.277 3.277 0 01-.5.437c-.177.125-.37.209-.578.25a2.636 2.636 0 01-.406-.36 1.667 1.667 0 00-.438-.312 10.694 10.694 0 01-.156-1.375 11.78 11.78 0 00-.11-1.359c-.041-.26-.109-.51-.202-.75a2.219 2.219 0 01-.125-.734v-.157c.01-.062.02-.12.03-.171a.843.843 0 01-.202-.422 9.252 9.252 0 01-.078-.532 4.615 4.615 0 00-.094-.546 1.044 1.044 0 00-.188-.454.232.232 0 00.063-.171.419.419 0 00-.031-.157.788.788 0 01-.016-.156.28.28 0 01.047-.14 1.076 1.076 0 01-.172-.282 2.873 2.873 0 01-.047-.265l-.031-.282c0-.094-.01-.192-.031-.297a.254.254 0 00-.11-.156c-.041-.042-.062-.073-.062-.094 0-.052.02-.093.062-.125a3.366 3.366 0 01-.36-.656 9.996 9.996 0 00-.312-.687.379.379 0 01.125-.266.515.515 0 00.157-.25h.5c.458.896.807 1.828 1.046 2.797.25.958.47 1.927.657 2.906.052.281.099.563.14.844.052.281.11.568.172.86.021.062.052.13.094.202a.437.437 0 01.062.22.417.417 0 01-.046.187c.062.041.109.099.14.171a.916.916 0 01.094.235c.031.073.057.15.078.234.02.073.052.14.094.203a.486.486 0 00.328-.171c.094-.105.177-.225.25-.36a5.45 5.45 0 00.219-.422c.073-.146.156-.26.25-.344.01-.114.03-.223.062-.328a1 1 0 00.063-.343c.104-.178.198-.344.28-.5.084-.157.136-.344.157-.563a.374.374 0 00.094-.094c.01-.03.057-.036.14-.015 0-.281.042-.552.126-.813.093-.27.218-.526.375-.765.02-.24.067-.48.14-.72.084-.25.177-.494.281-.733.032-.073.073-.157.125-.25a.64.64 0 00.079-.282.193.193 0 00-.032-.11.515.515 0 01-.015-.124.3.3 0 01.093-.219c.063-.062.12-.125.172-.187 0-.24.026-.48.078-.72.053-.239.157-.447.313-.624.052-.354.12-.698.203-1.031.083-.344.203-.672.36-.985h.562c0-.198.088-.297.266-.297.104 0 .218.026.343.079.084.229.14.49.172.78.042.282.063.542.063.782zm9.703 2.078a.664.664 0 00-.11.313c-.01.114-.015.218-.015.312v.375c.01.115.015.23.015.344v.234a.977.977 0 01-.093.219.982.982 0 00-.094.219c-.146.385-.219.77-.219 1.156v.031c-.052.125-.104.24-.156.344l-.125.313a1.362 1.362 0 00-.109.687 3.972 3.972 0 01-.579 1c-.239.292-.474.594-.703.906a2.649 2.649 0 00-.609.328 5.224 5.224 0 00-.516.454c-.323.104-.64.223-.953.359a3.02 3.02 0 00-.844.547c-.197.02-.395.052-.593.093a2.873 2.873 0 00-.578.188h-.188c-.094 0-.161-.02-.203-.063a1.592 1.592 0 01-.422.157c-.146.02-.292.031-.437.031-.188 0-.375-.01-.563-.031a55.27 55.27 0 00-.547-.094.94.94 0 00-.437-.328 12.367 12.367 0 01-.5-.235 4.778 4.778 0 01-.657-1.203 35.006 35.006 0 01-.421-1.328c.02-.146.057-.286.109-.422.052-.146.073-.302.062-.468a6.056 6.056 0 01.735-1.47 10.2 10.2 0 011.062-1.28c0-.063.01-.115.032-.157.03-.041.036-.104.015-.187.01.01.031.015.063.015.083 0 .135-.02.156-.062a.315.315 0 00.016-.172c.375-.24.713-.515 1.015-.828a4.373 4.373 0 011.063-.781.515.515 0 01.156-.235.7.7 0 00.172-.218c.333-.094.635-.235.906-.422a6.39 6.39 0 01.859-.5c.167-.094.323-.157.469-.188.156-.041.323-.083.5-.125.063-.02.12-.036.172-.047a.875.875 0 01.172-.015c.187 0 .37.036.547.11.177.062.359.093.547.093h.125l.125-.031a1.7 1.7 0 00.672.5c.062.156.135.291.218.406l.282.344c.093.104.177.224.25.359.083.125.135.276.156.453zm-1.563.813a.604.604 0 00-.015-.141 1.504 1.504 0 01-.297-.125.634.634 0 00-.313-.078.544.544 0 00-.218.047c-.011-.073-.042-.125-.094-.156a.557.557 0 00-.156-.079.497.497 0 00-.172-.062.422.422 0 01-.141-.094 2.707 2.707 0 00-.109-.25.33.33 0 00-.188-.203 1.255 1.255 0 01-.328.234c-.125.052-.255.105-.391.157a3.15 3.15 0 00-.375.187 1.208 1.208 0 00-.296.266h-.282a.651.651 0 01-.265.265.797.797 0 00-.297.235 2.294 2.294 0 00-.469.312c-.135.115-.271.24-.406.375-.136.125-.271.255-.406.39-.125.136-.26.261-.407.376a4.124 4.124 0 01-.453.765 14.08 14.08 0 00-.453.641 4.626 4.626 0 00-.36.719c-.093.25-.14.562-.14.937v.157c0 .052.005.104.016.156.135.146.244.302.328.469a.797.797 0 00.453.359c.208.083.427.12.656.11.24-.011.469.015.688.078a6.23 6.23 0 001.437-.454c.469-.218.912-.479 1.328-.78.063-.053.136-.105.219-.157a1.21 1.21 0 00.203-.188.656.656 0 00.125-.171c.042-.063.084-.12.125-.172.084-.136.177-.271.281-.407a3.91 3.91 0 01.329-.375 4.29 4.29 0 01.203-.656c.083-.219.166-.432.25-.64a4.61 4.61 0 00.203-.641 2.51 2.51 0 00.094-.688c0-.052-.006-.109-.016-.171a.834.834 0 00-.016-.172.62.62 0 00.125-.375zm13.61-2.375a.575.575 0 00-.078.28c0 .095-.011.188-.032.282a.752.752 0 00-.281.094l-.281.156a6.261 6.261 0 01-.266.156.687.687 0 01-.281.063.393.393 0 01-.234-.078.993.993 0 01-.188-.172 2.258 2.258 0 01-.609.11c-.219 0-.443.004-.672.015a4.62 4.62 0 00-.656.047 1.56 1.56 0 00-.579.172 1.3 1.3 0 01.063.296l.062.282c.032.094.068.182.11.265.052.084.12.157.203.22 0 .114.01.218.031.312.021.093.031.192.031.296.178.396.365.797.563 1.204.198.406.333.828.406 1.265.021.115.057.188.11.219.062.02.099.057.109.11v.515a.986.986 0 01.234.422c.052.146.089.302.11.469.021.156.036.317.047.484.01.167.031.328.062.484a5.817 5.817 0 00-.187.266.624.624 0 00-.079.313c0 .093.011.161.032.203-.115-.01-.193.02-.235.093a.883.883 0 00-.093.25l-.5.344c-.167.104-.323.23-.469.375a.987.987 0 00-.313.078 8.322 8.322 0 01-.297.14 2 2 0 01-.359.032h-.344c-.354 0-.708-.015-1.062-.047a40.987 40.987 0 01-1.047-.14 1.234 1.234 0 00-.5-.235 3.65 3.65 0 00-.547-.11 5.453 5.453 0 00-.625-.374c-.24-.125-.463-.182-.672-.172a.577.577 0 00-.297-.344 1.203 1.203 0 00-.422-.11.453.453 0 00.016-.14c0-.073-.021-.125-.062-.156a.422.422 0 00-.141-.094.856.856 0 00-.172-.078 1.017 1.017 0 01-.156-.094 1.51 1.51 0 01-.297-.28l-.25-.345a3.944 3.944 0 00-.266-.328 1.998 1.998 0 00-.312-.281c-.042-.24-.089-.474-.141-.703a3.38 3.38 0 01-.078-.719c0-.083.026-.161.078-.234.052-.073.11-.14.172-.203.063-.063.125-.13.188-.204a.58.58 0 00.125-.234c.156.073.338.11.546.11.23 0 .454-.032.672-.094a2.16 2.16 0 01.688-.11c.073 0 .14.01.203.032.062.01.125.015.187.015.073 0 .115-.02.125-.062.021-.052.073-.078.157-.078.146 0 .271.057.375.171.104.105.203.198.297.282-.011.146-.058.25-.141.312a.697.697 0 00-.203.25c-.167.01-.313.042-.438.094a2.516 2.516 0 00-.343.156 3.739 3.739 0 01-.36.14 1.503 1.503 0 01-.469.063c-.062 0-.114.047-.156.141a.525.525 0 01-.14.203c.083.084.156.172.218.266.073.094.141.187.203.281a1.045 1.045 0 00.594.36.523.523 0 00.094.203.432.432 0 01.125.171c.24.084.458.183.656.297l.594.313a6.3 6.3 0 00.609.25c.209.073.448.125.719.156.083.01.12.042.109.094-.01.041.011.068.063.078h.141a.974.974 0 01.156-.016c.114 0 .224.01.328.031.104.021.213.053.328.094.125-.041.281-.078.469-.11.198-.04.385-.093.562-.155.188-.073.344-.162.469-.266a.586.586 0 00.188-.453c0-.323-.068-.62-.204-.89a4.41 4.41 0 01-.312-.876 2.919 2.919 0 01-.047-.344 2.328 2.328 0 00-.062-.374 1.02 1.02 0 00-.11-.329.5.5 0 00-.219-.25c0-.083-.01-.171-.031-.265-.021-.104-.088-.167-.203-.188a2.388 2.388 0 00-.187-.656 7.261 7.261 0 00-.282-.64 12.121 12.121 0 01-.265-.641 2.522 2.522 0 01-.157-.688c-.333 0-.656.037-.968.11-.313.073-.625.161-.938.265-.302.094-.609.193-.922.297a10.26 10.26 0 01-.937.235 2.34 2.34 0 01-.5-.297 1.05 1.05 0 00-.547-.22c.031-.135.057-.286.078-.452.021-.167.057-.328.109-.485a1.28 1.28 0 01.219-.406.756.756 0 01.375-.266c.167.032.354.047.563.047.312 0 .614-.041.906-.125.292-.083.588-.171.891-.265h.125a4.9 4.9 0 00.984-.11c.354-.073.672-.171.953-.296.042.02.057.046.047.078 0 .02.021.036.062.046a.784.784 0 01.454-.187c.187-.02.38-.031.578-.031.208-.01.406-.026.593-.047a.784.784 0 00.454-.188c.145.052.296.089.453.11.166.01.333.015.5.015.208 0 .411-.005.609-.015.208-.021.417-.037.625-.047-.062-.021-.094-.047-.094-.078 0-.021.011-.052.032-.094.135.031.255.083.359.156.115.063.24.104.375.125a.33.33 0 00-.047.172.3.3 0 00.141.266c.093.052.177.11.25.172zm9.531.671v.063c-.073.02-.109.073-.109.156a2.113 2.113 0 01-.36.125c-.125.021-.245.058-.359.11a3.996 3.996 0 00-.36-.016 3.777 3.777 0 00-.343-.016c-.313 0-.625.01-.938.032a7.03 7.03 0 01-.937 0 2.265 2.265 0 01-.485.203 1.989 1.989 0 01-.484.062 1.04 1.04 0 01-.328-.047 4.56 4.56 0 01-.828.313c-.292.083-.589.167-.891.25a7.746 7.746 0 00-.875.265c-.271.094-.51.23-.719.407a6.493 6.493 0 00-.062.844c0 .145.005.28.015.406.021.125.058.25.11.375.052.02.109.036.172.047.073.01.135.015.187.015a.794.794 0 00.156-.015.188.188 0 00.11-.11c.156-.02.312-.026.469-.015h.468c.157 0 .308-.006.453-.016.157-.01.308-.037.454-.078.166-.042.328-.068.484-.078l.484-.031a8.34 8.34 0 00.485-.047c.166-.032.338-.089.515-.172.136.052.271.078.407.078.145 0 .286.01.421.031.073.052.131.11.172.172a.332.332 0 01.078.219.75.75 0 01-.156.437 3.158 3.158 0 00-.25.406h-.172c-.25 0-.494.037-.734.11-.229.062-.464.14-.703.234a13.95 13.95 0 01-.703.235 2.72 2.72 0 01-.719.093c-.042 0-.068.026-.078.079 0 .041-.011.072-.031.093a1.313 1.313 0 00-.235-.015c-.239 0-.469.026-.687.078a2.899 2.899 0 01-.672.078h-.188l-.187-.031a.405.405 0 01-.203.171.57.57 0 00-.235.126 1.445 1.445 0 00-.062.343c0 .136-.005.276-.016.422 0 .136-.01.266-.031.39a.604.604 0 01-.125.298c.01.052.052.072.125.062.073-.02.109.01.109.094 0 .094-.01.193-.031.297a1.576 1.576 0 00-.031.312c0 .198.021.417.062.656.052.23.125.443.219.641.104.198.24.365.406.5.167.125.375.188.625.188.167 0 .323-.032.469-.094a.791.791 0 00.359-.313l.079-.015c.041 0 .078.005.109.015.042.01.083.016.125.016.062 0 .141-.037.234-.11.104-.083.214-.177.328-.28.125-.105.25-.204.375-.297.125-.105.245-.178.36-.22.073-.145.14-.29.203-.437a.833.833 0 01.312-.344v-.453c.105-.114.214-.218.329-.312a.873.873 0 00.281-.36c.052.021.099.037.14.047a.811.811 0 00.313 0 .838.838 0 00.172-.046c.083.114.146.244.187.39.052.136.115.266.188.39-.094.188-.203.412-.328.673-.125.26-.261.52-.407.78-.145.261-.302.511-.468.75-.157.23-.313.407-.469.532a.666.666 0 01-.203.11c-.115.083-.219.161-.313.234a2.314 2.314 0 00-.265.281 4.615 4.615 0 00-.875.375c-.271.156-.542.307-.813.453a1.672 1.672 0 00-.406-.047c-.125 0-.25.006-.375.016-.125.02-.26.031-.406.031a.335.335 0 00-.188-.11c-.073-.01-.099-.062-.078-.155-.354-.021-.641-.12-.859-.297a2.318 2.318 0 01-.563-.625 4.095 4.095 0 01-.359-.813 16.321 16.321 0 00-.297-.843v-.047c0-.053.021-.084.062-.094.042-.01.063-.042.063-.094 0-.02-.005-.036-.016-.047a17.912 17.912 0 01-.078-.297 1.23 1.23 0 01-.031-.296c0-.167.01-.329.031-.485.021-.166.031-.333.031-.5 0-.166-.02-.312-.062-.437a.725.725 0 00.109-.204 2.497 2.497 0 00.063-.562c.01-.094.026-.177.047-.25l-.11-.297a1.045 1.045 0 01-.047-.328v-.11a3.71 3.71 0 00.266-.546c.073-.188.151-.38.234-.578v-.047c0-.302-.01-.604-.031-.906a13.063 13.063 0 01-.031-.907v-.297c0-.104.005-.203.016-.296a.433.433 0 00.187-.172.43.43 0 01.188-.172h.515l.094-.157a.482.482 0 00.062-.171c.115-.032.224-.073.329-.125.114-.063.218-.125.312-.188a21.9 21.9 0 01.391-.219c.125-.073.244-.13.359-.171.125-.053.255-.094.391-.125a4.35 4.35 0 01.468-.079c.084 0 .136-.015.157-.046.031-.032.073-.068.125-.11l.375.063c.125.01.25.015.375.015.25 0 .484-.047.703-.14.312 0 .62-.006.922-.016a28.1 28.1 0 01.937-.016c.271 0 .542.01.813.032.271.02.536.057.797.109a.976.976 0 01.312-.047c.125 0 .25.016.375.047.135.02.266.02.391 0 .01.115.036.214.078.297a.445.445 0 01.078.266zm20.219-.968c0 .593-.078 1.14-.235 1.64-.156.5-.359.98-.609 1.438-.24.458-.5.911-.781 1.36-.282.447-.547.921-.797 1.421-.063 0-.11.016-.141.047a.694.694 0 00-.062.125.368.368 0 01-.063.125c-.021.031-.062.047-.125.047-.094.229-.213.448-.359.656-.146.198-.302.396-.469.594-.156.187-.312.38-.469.578a4.312 4.312 0 00-.39.64h-.157a12.775 12.775 0 01-1.906 2.188 14.562 14.562 0 01-2.297 1.735.401.401 0 01-.093.156c-.042.041-.053.099-.032.172-.114.062-.213.14-.297.234l-.218.313a3.172 3.172 0 01-.235.296.667.667 0 01-.297.235 8.24 8.24 0 00-.453-.078 5.204 5.204 0 00-.422-.047h-.187a.477.477 0 01-.172 0 .609.609 0 01-.297-.14c-.073-.063-.182-.095-.328-.095a.745.745 0 00-.172.016 4.643 4.643 0 00-.297-.453.816.816 0 01-.156-.485c0-.135.016-.26.047-.375.042-.114.062-.234.062-.359 0-.25-.046-.495-.14-.734a2.204 2.204 0 01-.125-.735c0-.083.01-.161.031-.234.021-.083.031-.167.031-.25a.323.323 0 00-.125-.25.512.512 0 01.063-.156.33.33 0 00.047-.172.731.731 0 00.015-.266 2.97 2.97 0 01-.015-.281c0-.219.01-.438.031-.656.021-.219.068-.432.141-.64a.856.856 0 00-.047-.173l-.063-.156c.073-.219.12-.463.141-.734.021-.271.031-.542.031-.813V11c0-.27.016-.526.047-.766l.062-.296c.032-.105.047-.204.047-.297a.474.474 0 00-.047-.22.788.788 0 00-.125-.202c.073-.021.115-.063.125-.125.011-.073.016-.136.016-.188 0-.146-.026-.307-.078-.484.042-.177.068-.354.078-.531.01-.188.016-.37.016-.547 0-.625-.042-1.24-.125-1.844a21.296 21.296 0 01-.141-1.828h-.047a.282.282 0 00-.172.047 1.281 1.281 0 00-.125.11 1.545 1.545 0 01-.14.093.365.365 0 01-.188.015c-.125.146-.271.271-.437.376a3.927 3.927 0 01-.5.28c-.177.084-.36.162-.547.235-.188.063-.365.125-.531.188a.913.913 0 01-.375-.25 8.11 8.11 0 01-.297-.375.487.487 0 01-.016-.125V4.14c0-.292.068-.51.203-.657.136-.156.281-.338.438-.546h.078c.052 0 .099.01.14.03.032.022.073.032.125.032h.047c.302-.25.62-.448.953-.594a5.55 5.55 0 011.063-.36c.156-.155.312-.275.469-.358a1.273 1.273 0 01.75-.11c.073 0 .135.005.187.016.427-.198.828-.365 1.203-.5a3.739 3.739 0 011.328-.219c.063 0 .105-.016.125-.047a.596.596 0 00.079-.094.876.876 0 01.062-.109c.021-.031.057-.047.109-.047 0 .021.006.052.016.094s.037.062.078.062c.042 0 .078-.01.11-.03a.226.226 0 01.14-.048c.052 0 .089.037.11.11.114-.073.224-.141.328-.204.104-.062.218-.109.343-.14.157.031.313.057.469.078a4.04 4.04 0 00.875.016.64.64 0 00.328-.157c.042-.01.063.01.063.063.094.083.193.14.297.172.104.02.213.036.328.047.114 0 .229.005.344.015.114.01.218.047.312.11.083.02.151.057.203.109.052.042.12.078.203.11a1.2 1.2 0 00.25.046c.115.01.198.032.25.063.052.02.078.057.078.11.011.04.042.077.094.109.094.072.219.12.375.14a.76.76 0 01.406.14c.042.23.157.381.344.454.188.073.37.146.547.219a.218.218 0 01.063.218c.125.094.234.198.328.313.104.114.198.24.281.375.094.125.182.25.266.375.083.125.182.24.296.344-.01.093 0 .166.032.218.041.052.052.13.031.235.125.114.24.265.344.453a.548.548 0 00-.094.312c0 .105.016.209.047.313.031.104.047.208.047.312v.36zm-1.453-.344a2.31 2.31 0 00-.172-.875 10.268 10.268 0 01-.297-.86c-.136 0-.224-.046-.266-.14a.525.525 0 00-.187-.266c-.198-.041-.323-.192-.375-.453a10.84 10.84 0 01-.641-.281 1.498 1.498 0 01-.547-.438c-.375-.114-.755-.229-1.14-.343a3.637 3.637 0 00-1.157-.188c-.073 0-.14.005-.203.016h-.156a.846.846 0 00-.266.047.836.836 0 01-.265.047.506.506 0 01-.282-.094 2.849 2.849 0 01-.687.266c-.24.062-.484.12-.734.171-.25.042-.495.1-.735.172a1.9 1.9 0 00-.64.297 1.24 1.24 0 00-.344-.062.342.342 0 00-.219.062.149.149 0 00-.062.078.484.484 0 01-.016.11c0 .03-.01.057-.031.078-.021.02-.063.026-.125.015a.601.601 0 01-.016.141v.14c0 .271.026.542.078.813a3.377 3.377 0 01.078 1.094c-.01.094-.031.187-.062.281.052.125.078.26.078.406.01.146.016.292.016.438 0 .146.005.292.015.437.011.136.047.266.11.391a3.424 3.424 0 00-.063.469c-.01.156-.016.312-.016.468 0 .365.016.724.047 1.079.042.354.063.713.063 1.078 0 .094-.005.193-.016.297 0 .104-.005.208-.015.312a1.688 1.688 0 01-.11.39c-.052.126-.078.261-.078.407 0 .094.005.193.016.297.01.094.015.193.015.297a.535.535 0 01-.015.125v.11a18.86 18.86 0 00-.125 1.108 13.04 13.04 0 00-.047 1.11 16.906 16.906 0 00.125 2.047.492.492 0 00-.063.25.97.97 0 00.11.437c.073.157.182.26.328.313.333-.125.64-.292.922-.5.291-.198.583-.401.875-.61.073-.052.182-.12.328-.203.146-.093.245-.161.297-.203a.733.733 0 00.125-.125 1.79 1.79 0 01.14-.156l.688-.735a67.01 67.01 0 001.172-1.234c.396-.416.76-.86 1.093-1.328.094-.146.188-.287.282-.422.093-.146.182-.297.265-.453a.55.55 0 00.094-.172.428.428 0 01.109-.187c.032-.042.068-.084.11-.125a.698.698 0 00.125-.125c.083-.094.161-.188.234-.282.084-.104.167-.213.25-.328.229-.333.443-.666.641-1 .198-.344.416-.682.656-1.015.021-.209.063-.401.125-.579.063-.187.125-.364.188-.53.062-.178.114-.36.156-.548.041-.187.052-.395.031-.625.052-.073.094-.125.125-.156.042-.031.063-.094.063-.187V5.75zm11.312 8.719a.933.933 0 01-.203.39 1.736 1.736 0 01-.328.282c-.115.083-.24.161-.375.234a2.839 2.839 0 00-.391.219h-.203c-.437 0-.776-.104-1.016-.313a2.231 2.231 0 01-.531-.797 5.32 5.32 0 01-.281-1.03 8.101 8.101 0 00-.203-1c-.125.103-.229.228-.313.374-.083.136-.172.271-.265.406a2.1 2.1 0 01-.297.375.8.8 0 01-.422.235 2.225 2.225 0 01-.109.219.824.824 0 00-.063.234c-.229.125-.437.27-.625.437a25.06 25.06 0 00-.562.516c-.188.177-.381.349-.579.516a2.628 2.628 0 01-.64.39c-.011-.01-.031-.015-.063-.015a.653.653 0 00-.343.093.761.761 0 01-.344.078.589.589 0 01-.235-.046 4.395 4.395 0 01-.203-.11.714.714 0 00-.203-.093.582.582 0 00-.234-.016 1.954 1.954 0 00-.422-.516 1.09 1.09 0 01-.313-.562 2.75 2.75 0 01-.046-.281c0-.105-.011-.209-.032-.313a3.875 3.875 0 00-.125-.469 4.561 4.561 0 01-.125-.5c.052-.281.104-.588.157-.922.041-.343.093-.682.156-1.015.073-.344.166-.667.281-.969.125-.313.281-.578.469-.797l-.016-.11c0-.166.031-.322.094-.468.062-.146.13-.286.203-.422.073-.135.135-.27.188-.406a.824.824 0 00.031-.453c.125-.063.255-.115.39-.157a1.43 1.43 0 01.422-.062c.136 0 .261.02.375.063-.021.083.016.135.11.156v.047c0 .218-.026.432-.078.64a7.417 7.417 0 01-.188.625c-.073.198-.146.401-.219.61a4.011 4.011 0 00-.14.609.152.152 0 00-.094.063l-.031.093a.202.202 0 01-.047.078c-.021.021-.052.032-.094.032-.062.364-.13.729-.203 1.093a6.143 6.143 0 00-.094 1.079c0 .218.021.442.063.671.041.23.119.448.234.657l.063-.016c.114 0 .203.026.265.078.073.052.167.104.281.156.084-.02.162-.046.235-.078.073-.041.104-.11.094-.203a.828.828 0 00.343-.094 1.62 1.62 0 00.25-.203l.235-.219a.735.735 0 01.297-.156c0-.062.015-.11.046-.14l.094-.094a.29.29 0 00.078-.266.503.503 0 00.282-.093c.072-.053.135-.11.187-.172.063-.073.12-.146.172-.22a.707.707 0 01.203-.187c.073-.156.172-.364.297-.625.135-.26.266-.53.391-.812.135-.281.25-.547.343-.797.104-.26.157-.458.157-.594a.23.23 0 00-.047-.14.215.215 0 01-.016-.141v-.047c.083-.104.156-.219.219-.344.073-.125.146-.244.219-.359.083-.115.171-.219.265-.313a.955.955 0 01.36-.218c.166.052.333.088.5.11.177.02.343.062.5.124.01.26.036.563.078.906.041.344.114.636.218.875 0 .136-.005.266-.015.391v.375c0 .208.005.422.015.64.021.22.058.422.11.61-.073.156-.11.323-.11.5 0 .24.037.469.11.688.073.208.125.432.156.671a.627.627 0 00.656.266.585.585 0 00.125-.047c.084.094.157.188.219.281.073.084.156.162.25.235zm10.797-7.735a1.35 1.35 0 01-.094.329.72.72 0 00-.015.343.393.393 0 00-.25.11.864.864 0 00-.141.187 4.755 4.755 0 01-.109.234.847.847 0 01-.125.204c.083.375.13.755.14 1.14.011.386.037.766.078 1.14.052.48.131.954.235 1.423a5.804 5.804 0 01.156 1.812v.657c.01.083.016.166.016.25 0 .302-.042.604-.125.906a9.02 9.02 0 00-.172.906c-.125.115-.235.24-.328.375-.084.135-.172.26-.266.375a1.493 1.493 0 01-.328.297 1.058 1.058 0 01-.469.187.386.386 0 01-.187.235.716.716 0 00-.219.218h-.031a1.85 1.85 0 01-.672-.109 4.14 4.14 0 01-.532-.25 33.588 33.588 0 01-.484-.297 2.259 2.259 0 00-.578-.25c-.292-.24-.557-.5-.797-.781a4.82 4.82 0 00-.812-.781 1.46 1.46 0 00-.297-.516 4.563 4.563 0 01-.344-.469 1.515 1.515 0 01-.125-.203 1.7 1.7 0 00-.094-.219.284.284 0 00-.156-.171.94.94 0 01-.172-.11 3.542 3.542 0 00-.359-.89 5.654 5.654 0 00-.547-.782c-.063.115-.115.24-.156.375-.032.125-.063.256-.094.391a3.331 3.331 0 01-.125.39c-.042.126-.099.24-.172.344v.047c0 .052.021.084.062.094.042.01.063.042.063.094 0 .01-.005.02-.016.031v.031a.472.472 0 00-.125.156c-.021.063-.073.1-.156.11.01.052.016.104.016.156v.14c0 .303-.037.605-.11.907-.062.302-.093.61-.093.922v.203c0 .073.005.14.015.203a.784.784 0 00.094.188c.042.062.062.12.062.172 0 .072-.031.14-.093.203.073.052.156.109.25.172.093.062.177.13.25.203.083.083.151.166.203.25a.603.603 0 01.078.297c0 .177-.057.302-.172.375a1.43 1.43 0 01-.422.171 6 6 0 01-.5.11c-.166.041-.307.11-.422.203h-.047c-.125 0-.218-.037-.281-.11-.062-.072-.156-.109-.281-.109a3.13 3.13 0 01-.406-1.094 6.293 6.293 0 01-.11-1.14c0-.448.042-.896.125-1.344.073-.448.167-.89.282-1.328.104-.438.218-.87.343-1.297.136-.438.261-.875.375-1.313l.016-.046c0-.053-.016-.089-.047-.11-.021-.02-.031-.052-.031-.094 0-.02.005-.03.015-.03.032-.105.063-.204.094-.298.042-.093.073-.197.094-.312a6.42 6.42 0 00.125-.89c.031-.313.047-.62.047-.923l.031-.906a8.98 8.98 0 01.109-.922 2.77 2.77 0 00.235-.265c.073-.094.166-.177.281-.25.208.01.417.041.625.093.208.052.406.136.594.25.125.448.208.896.25 1.344.052.448.135.896.25 1.344v.047c0 .052.026.078.078.078.062-.01.109.005.141.047a.335.335 0 00-.047.11v.39c.021.083.047.172.078.265a.248.248 0 00.203.172c.052.334.13.64.234.922.104.281.224.552.36.813.135.26.281.52.437.78.156.25.318.517.485.798.26.198.484.427.671.687.188.25.375.495.563.735.198.229.417.432.656.609.25.177.573.287.969.328a.329.329 0 00.109-.172l.078-.218c.032-.073.063-.136.094-.188a.383.383 0 01.172-.14l.063-.891c.031-.302.099-.589.203-.86a.7.7 0 01-.078-.343 2.8 2.8 0 01.015-.297c.021-.094.031-.188.031-.281a.852.852 0 00-.125-.485c0-.073.006-.146.016-.219a.504.504 0 01.094-.234 4.29 4.29 0 01-.203-.656 3.893 3.893 0 01-.063-.703c0-.136.016-.276.047-.422a2.038 2.038 0 01-.125-.547l-.062-.64a5.165 5.165 0 00-.094-.61.9.9 0 00-.235-.453.574.574 0 00.094-.328c0-.209-.031-.407-.094-.594a1.879 1.879 0 01-.093-.594c0-.146.031-.292.093-.437.23.01.454.036.672.078.229.031.453.047.672.047a.821.821 0 00.219.203c.083.052.172.104.266.156.093.042.182.089.265.14a.55.55 0 01.219.22zm12.062 2.563c0 .104-.036.172-.109.203-.073.031-.109.094-.109.188 0 .03.01.057.031.078.021.02.031.052.031.093v.063a5.834 5.834 0 01-.547 1.578c-.229.448-.5.86-.812 1.234-.313.375-.667.73-1.063 1.063a53.804 53.804 0 01-1.64 1.36 5.487 5.487 0 00-.36.327l-.343.329a1.01 1.01 0 01-.172.078 1.846 1.846 0 00-.188.062 8.86 8.86 0 00-.469.219 1.518 1.518 0 00-.406.312c-.208 0-.385.032-.531.094a4.338 4.338 0 00-.484.25.31.31 0 01-.141-.031 1.038 1.038 0 00-.109-.063.312.312 0 00-.141-.03.349.349 0 00-.172.015 2.73 2.73 0 00-.406-.532c-.146-.145-.344-.234-.594-.265a.645.645 0 00-.219-.406 9.898 9.898 0 01-.343-.329 1.102 1.102 0 01-.047-.218.895.895 0 00-.063-.235.589.589 0 00-.125-.187.296.296 0 00-.219-.078c-.01-.063.016-.094.079-.094.062 0 .093-.026.093-.078a.585.585 0 00-.031-.188.634.634 0 01-.016-.343c.011-.042.026-.089.047-.141a7.838 7.838 0 01-.047-.86c0-.562.037-1.114.11-1.656.083-.552.125-1.109.125-1.671 0-.25-.016-.5-.047-.75a3.525 3.525 0 00-.141-.735 9.116 9.116 0 00-.718.188c-.24.062-.464.15-.672.265a.788.788 0 00-.36-.125 2.377 2.377 0 01-.39-.094 1.001 1.001 0 01-.11-.453c0-.145.026-.286.078-.421l.157-.407c.25-.052.5-.13.75-.234a8.81 8.81 0 01.734-.281l.313-.079c.135-.03.229-.057.281-.078a.235.235 0 00.14-.171.731.731 0 01.125-.235h.266c.063 0 .13.005.203.016.073 0 .141.015.203.047.375-.094.75-.151 1.125-.172a24.46 24.46 0 001.157-.125c.041 0 .104-.005.187-.016l.266-.047c.093-.02.177-.036.25-.047a.85.85 0 01.172-.03c.031 0 .046.015.046.046h.266c.448 0 .885.057 1.313.172l1.281.344c.177.145.354.286.531.421.177.136.375.256.594.36.052.167.13.302.234.406.115.094.24.198.375.313a4 4 0 00.203.437c.094.146.183.297.266.453.083.156.156.313.219.469.062.146.093.286.093.422zm-1.453.234c-.114-.24-.224-.49-.328-.75a3.059 3.059 0 00-.39-.703 7.373 7.373 0 01-.579-.187.712.712 0 01-.39-.422.27.27 0 01-.11.015.345.345 0 01-.25-.109.499.499 0 00-.25-.14 21.98 21.98 0 01-.343-.048 5.18 5.18 0 00-.438-.046l-.469-.032a5.085 5.085 0 00-.343-.015 2.41 2.41 0 00-.266.015c-.083 0-.172.006-.266.016-.083 0-.135.016-.156.047a.336.336 0 01-.125.062.457.457 0 00-.172-.03h-.187c-.219 0-.438.036-.656.109a3.189 3.189 0 00-.625.265v.063c0 .083.036.13.109.14.073.01.115.052.125.125a.406.406 0 00-.125.016c-.031 0-.047.036-.047.11 0 .103.01.218.031.343.032.125.047.25.047.375 0 .094-.01.203-.031.328a.488.488 0 01-.156.297.48.48 0 01.156.375.953.953 0 01-.063.328 1.106 1.106 0 01-.156.297c-.021.438-.062.88-.125 1.328-.062.448-.094.89-.094 1.328 0 .219.011.432.032.64.031.21.078.418.14.626a1.4 1.4 0 00.36.265c.135.063.276.126.422.188v.047c0 .031-.021.062-.063.094a.147.147 0 00-.062.125c0 .041.02.062.062.062a8.585 8.585 0 001.234-.453 4.241 4.241 0 001.079-.719c.031-.031.062-.047.093-.047a1.445 1.445 0 01.188.047l-.016-.062a.33.33 0 01.047-.172.92.92 0 01.141-.14l.156-.141a.815.815 0 00.125-.157c.083-.02.141-.062.172-.125.041-.062.109-.093.203-.093a.339.339 0 01.172-.25.39.39 0 00.172-.266 2.21 2.21 0 00.547-.422c.166-.166.317-.344.453-.531.146-.188.281-.38.406-.578a8.15 8.15 0 01.391-.594v-.063c0-.166.026-.302.078-.406a1.23 1.23 0 00.14-.375zm13.11-3.14a.575.575 0 00-.078.28c0 .095-.011.188-.032.282a.752.752 0 00-.281.094l-.281.156a6.261 6.261 0 01-.266.156.687.687 0 01-.281.063.393.393 0 01-.234-.078.993.993 0 01-.188-.172 2.258 2.258 0 01-.609.11c-.219 0-.443.004-.672.015a4.62 4.62 0 00-.656.047 1.56 1.56 0 00-.579.172 1.3 1.3 0 01.063.296l.062.282c.032.094.068.182.11.265.052.084.12.157.203.22 0 .114.01.218.031.312.021.093.031.192.031.296.178.396.365.797.563 1.204.198.406.333.828.406 1.265.021.115.057.188.11.219.062.02.099.057.109.11v.515a.986.986 0 01.234.422c.052.146.089.302.11.469.021.156.036.317.047.484.01.167.031.328.062.484a5.817 5.817 0 00-.187.266.624.624 0 00-.079.313c0 .093.011.161.032.203-.115-.01-.193.02-.235.093a.883.883 0 00-.093.25l-.5.344c-.167.104-.323.23-.469.375a.987.987 0 00-.313.078 8.322 8.322 0 01-.297.14 2 2 0 01-.359.032h-.344c-.354 0-.708-.015-1.062-.047a40.987 40.987 0 01-1.047-.14 1.234 1.234 0 00-.5-.235 3.65 3.65 0 00-.547-.11 5.453 5.453 0 00-.625-.374c-.24-.125-.463-.182-.672-.172a.577.577 0 00-.297-.344 1.203 1.203 0 00-.422-.11.453.453 0 00.016-.14c0-.073-.021-.125-.062-.156a.422.422 0 00-.141-.094.856.856 0 00-.172-.078 1.017 1.017 0 01-.156-.094 1.51 1.51 0 01-.297-.28l-.25-.345a3.944 3.944 0 00-.266-.328 1.998 1.998 0 00-.312-.281c-.042-.24-.089-.474-.141-.703a3.38 3.38 0 01-.078-.719c0-.083.026-.161.078-.234.052-.073.11-.14.172-.203.063-.063.125-.13.188-.204a.58.58 0 00.125-.234c.156.073.338.11.546.11.23 0 .454-.032.672-.094a2.16 2.16 0 01.688-.11c.073 0 .14.01.203.032.062.01.125.015.187.015.073 0 .115-.02.125-.062.021-.052.073-.078.157-.078.146 0 .271.057.375.171.104.105.203.198.297.282-.011.146-.058.25-.141.312a.697.697 0 00-.203.25c-.167.01-.313.042-.438.094a2.516 2.516 0 00-.343.156 3.739 3.739 0 01-.36.14 1.503 1.503 0 01-.469.063c-.062 0-.114.047-.156.141a.525.525 0 01-.14.203c.083.084.156.172.218.266.073.094.141.187.203.281a1.045 1.045 0 00.594.36.523.523 0 00.094.203.432.432 0 01.125.171c.24.084.458.183.656.297l.594.313a6.3 6.3 0 00.609.25c.209.073.448.125.719.156.083.01.12.042.109.094-.01.041.011.068.063.078h.141a.974.974 0 01.156-.016c.114 0 .224.01.328.031.104.021.213.053.328.094.125-.041.281-.078.469-.11.198-.04.385-.093.562-.155.188-.073.344-.162.469-.266a.586.586 0 00.188-.453c0-.323-.068-.62-.204-.89a4.41 4.41 0 01-.312-.876 2.919 2.919 0 01-.047-.344 2.328 2.328 0 00-.062-.374 1.02 1.02 0 00-.11-.329.5.5 0 00-.219-.25c0-.083-.01-.171-.031-.265-.021-.104-.088-.167-.203-.188a2.388 2.388 0 00-.187-.656 7.261 7.261 0 00-.282-.64 12.121 12.121 0 01-.265-.641 2.522 2.522 0 01-.157-.688c-.333 0-.656.037-.968.11-.313.073-.625.161-.938.265-.302.094-.609.193-.922.297a10.26 10.26 0 01-.937.235 2.34 2.34 0 01-.5-.297 1.05 1.05 0 00-.547-.22c.031-.135.057-.286.078-.452.021-.167.057-.328.109-.485a1.28 1.28 0 01.219-.406.756.756 0 01.375-.266c.167.032.354.047.563.047.312 0 .614-.041.906-.125.292-.083.588-.171.891-.265h.125a4.9 4.9 0 00.984-.11c.354-.073.672-.171.953-.296.042.02.057.046.047.078 0 .02.021.036.062.046a.784.784 0 01.454-.187c.187-.02.38-.031.578-.031.208-.01.406-.026.593-.047a.784.784 0 00.454-.188c.145.052.296.089.453.11.166.01.333.015.5.015.208 0 .411-.005.609-.015.208-.021.417-.037.625-.047-.062-.021-.094-.047-.094-.078 0-.021.011-.052.032-.094.135.031.255.083.359.156.115.063.24.104.375.125a.33.33 0 00-.047.172.3.3 0 00.141.266c.093.052.177.11.25.172zm9.531.671v.063c-.073.02-.109.073-.109.156a2.113 2.113 0 01-.36.125c-.125.021-.245.058-.359.11a3.996 3.996 0 00-.36-.016 3.777 3.777 0 00-.343-.016c-.313 0-.625.01-.938.032a7.03 7.03 0 01-.937 0 2.265 2.265 0 01-.485.203 1.989 1.989 0 01-.484.062 1.04 1.04 0 01-.328-.047 4.56 4.56 0 01-.828.313c-.292.083-.589.167-.891.25a7.746 7.746 0 00-.875.265c-.271.094-.51.23-.719.407a6.493 6.493 0 00-.062.844c0 .145.005.28.015.406.021.125.058.25.11.375.052.02.109.036.172.047.073.01.135.015.187.015a.794.794 0 00.156-.015.188.188 0 00.11-.11c.156-.02.312-.026.469-.015h.468c.157 0 .308-.006.453-.016.157-.01.308-.037.454-.078.166-.042.328-.068.484-.078l.484-.031a8.34 8.34 0 00.485-.047c.166-.032.338-.089.515-.172.136.052.271.078.407.078.145 0 .286.01.421.031.073.052.131.11.172.172a.332.332 0 01.078.219.75.75 0 01-.156.437 3.158 3.158 0 00-.25.406h-.172c-.25 0-.494.037-.734.11-.229.062-.464.14-.703.234a13.95 13.95 0 01-.703.235 2.72 2.72 0 01-.719.093c-.042 0-.068.026-.078.079 0 .041-.011.072-.031.093a1.313 1.313 0 00-.235-.015c-.239 0-.469.026-.687.078a2.899 2.899 0 01-.672.078h-.188l-.187-.031a.405.405 0 01-.203.171.57.57 0 00-.235.126 1.445 1.445 0 00-.062.343c0 .136-.005.276-.016.422 0 .136-.01.266-.031.39a.604.604 0 01-.125.298c.01.052.052.072.125.062.073-.02.109.01.109.094 0 .094-.01.193-.031.297a1.576 1.576 0 00-.031.312c0 .198.021.417.062.656.052.23.125.443.219.641.104.198.24.365.406.5.167.125.375.188.625.188.167 0 .323-.032.469-.094a.791.791 0 00.359-.313l.079-.015c.041 0 .078.005.109.015.042.01.083.016.125.016.062 0 .141-.037.234-.11.104-.083.214-.177.328-.28.125-.105.25-.204.375-.297.125-.105.245-.178.36-.22.073-.145.14-.29.203-.437a.833.833 0 01.312-.344v-.453c.105-.114.214-.218.329-.312a.873.873 0 00.281-.36c.052.021.099.037.14.047a.811.811 0 00.313 0 .838.838 0 00.172-.046c.083.114.146.244.187.39.052.136.115.266.188.39-.094.188-.203.412-.328.673-.125.26-.261.52-.407.78-.145.261-.302.511-.468.75-.157.23-.313.407-.469.532a.666.666 0 01-.203.11c-.115.083-.219.161-.313.234a2.314 2.314 0 00-.265.281 4.615 4.615 0 00-.875.375c-.271.156-.542.307-.813.453a1.672 1.672 0 00-.406-.047c-.125 0-.25.006-.375.016-.125.02-.26.031-.406.031a.335.335 0 00-.188-.11c-.073-.01-.099-.062-.078-.155-.354-.021-.641-.12-.859-.297a2.318 2.318 0 01-.563-.625 4.095 4.095 0 01-.359-.813 16.321 16.321 0 00-.297-.843v-.047c0-.053.021-.084.062-.094.042-.01.063-.042.063-.094 0-.02-.005-.036-.016-.047a17.912 17.912 0 01-.078-.297 1.23 1.23 0 01-.031-.296c0-.167.01-.329.031-.485.021-.166.031-.333.031-.5 0-.166-.02-.312-.062-.437a.725.725 0 00.109-.204 2.497 2.497 0 00.063-.562c.01-.094.026-.177.047-.25l-.11-.297a1.045 1.045 0 01-.047-.328v-.11a3.71 3.71 0 00.266-.546c.073-.188.151-.38.234-.578v-.047c0-.302-.01-.604-.031-.906a13.063 13.063 0 01-.031-.907v-.297c0-.104.005-.203.016-.296a.433.433 0 00.187-.172.43.43 0 01.188-.172h.515l.094-.157a.482.482 0 00.062-.171c.115-.032.224-.073.329-.125.114-.063.218-.125.312-.188a21.9 21.9 0 01.391-.219c.125-.073.244-.13.359-.171.125-.053.255-.094.391-.125a4.35 4.35 0 01.468-.079c.084 0 .136-.015.157-.046.031-.032.073-.068.125-.11l.375.063c.125.01.25.015.375.015.25 0 .484-.047.703-.14.312 0 .62-.006.922-.016a28.1 28.1 0 01.937-.016c.271 0 .542.01.813.032.271.02.536.057.797.109a.976.976 0 01.312-.047c.125 0 .25.016.375.047.135.02.266.02.391 0 .01.115.036.214.078.297a.445.445 0 01.078.266zm19.234 7.22a.56.56 0 01-.172.359 1.732 1.732 0 01-.296.234.811.811 0 00-.157-.016.573.573 0 00-.14-.015 2.7 2.7 0 00-.922.125 4.865 4.865 0 01-.875.203c-.104.02-.203.031-.297.031a.778.778 0 00-.266.016 14.96 14.96 0 01-1.062.125c-.375.031-.75.073-1.125.125-.375.041-.745.099-1.11.172a5.06 5.06 0 00-1 .28c-.031-.02-.062-.04-.093-.062a.152.152 0 00-.11-.046.934.934 0 00-.297.046.65.65 0 01-.281.032c-.104.062-.219.109-.344.14l-.359.063c-.115.01-.229.031-.344.062a.91.91 0 00-.328.172.693.693 0 00-.312-.062c-.115-.01-.193-.052-.235-.125a2.39 2.39 0 01-.765.218c-.261.032-.526.042-.797.032a5.529 5.529 0 01-1.297-.25 5.188 5.188 0 01-.641-.282 1.33 1.33 0 01-.453-.406 1.022 1.022 0 01-.156-.344.424.424 0 00-.219-.28c.031-.24.068-.475.11-.704l.125-.703a7.543 7.543 0 001.125-1.188c.197-.093.38-.208.546-.343.178-.136.349-.271.516-.407a82.3 82.3 0 01.516-.421c.177-.136.364-.256.562-.36a.432.432 0 01.125-.172c.063-.052.125-.099.188-.14.062-.053.119-.104.172-.157a.544.544 0 00.109-.218c.365-.22.682-.495.953-.829.271-.333.448-.708.531-1.124a1.31 1.31 0 00-.609-.282 4.74 4.74 0 00-.688-.11 6.883 6.883 0 00-.656 0c-.219.011-.443.006-.672-.015-.229.073-.468.12-.718.14l-.719.063c-.24.01-.479.042-.719.094a2.115 2.115 0 00-.672.25.52.52 0 01-.125-.015.346.346 0 00-.109-.016 1.93 1.93 0 00-.938.203c-.291.135-.578.27-.859.406a.236.236 0 00-.031.094c0 .063.01.125.031.188a.33.33 0 01.047.171c-.011.01-.016.021-.016.032 0 .01-.005.02-.015.03a.575.575 0 01-.047.142 1.18 1.18 0 01-.047.14 3.358 3.358 0 00-.188.985c-.01.27-.01.536 0 .796.011.26.011.526 0 .797a4.438 4.438 0 01-.156.938c.052.25.099.515.141.797a10.555 10.555 0 00.375 1.609c.093.25.213.49.359.719-.01.02-.005.036.016.047.021.01.041.015.062.015h.125c.052 0 .073.021.063.063a.409.409 0 01.047.093c.01.021.031.042.062.063.021.031.021.073 0 .125-.01.208-.062.401-.156.578-.094.177-.151.37-.172.578-.125.032-.24.047-.344.047a.902.902 0 01-.469-.156 1.782 1.782 0 01-.375-.313c-.114-.125-.224-.25-.328-.375a1.784 1.784 0 00-.343-.343 23.808 23.808 0 01-.219-.97 2.536 2.536 0 00-.328-.905.856.856 0 00.062-.344 1.974 1.974 0 00-.062-.61 2.12 2.12 0 01-.032-.624c0-.115.011-.23.032-.344.031-.115.052-.23.062-.344a1.42 1.42 0 00-.062-.516 1.673 1.673 0 01-.047-.515c.01-.084.026-.162.047-.235a.745.745 0 01.125-.218.629.629 0 01-.047-.36 3.62 3.62 0 01.062-.5c.032-.156.052-.312.063-.469 0-.083-.005-.161-.016-.234a1.486 1.486 0 00-.047-.234l-.14-.047a.418.418 0 00-.188.047.705.705 0 00-.14.11l-.11.108a.166.166 0 01-.094.032h-.078a.137.137 0 00-.062-.016c-.021 0-.063.021-.125.063-.052.041-.12.088-.203.14a2.576 2.576 0 00-.219.14.744.744 0 01-.172.079.688.688 0 01-.281-.11 2.812 2.812 0 00-.188-.171.793.793 0 00-.172-.156.297.297 0 00-.234-.063.451.451 0 01-.047-.203.801.801 0 010-.219v-.25a.902.902 0 01.297-.328c.115-.094.24-.172.375-.234l.406-.188c.136-.062.261-.14.375-.234h.141a.815.815 0 00.484-.11c.146-.083.282-.177.407-.28l.375-.345c.135-.114.281-.203.437-.265.115.052.234.099.359.14.125.032.256.052.391.063.135 0 .276-.021.422-.063a.625.625 0 00.344-.234l.125.047h.14c.157.01.313-.01.469-.063.156-.062.307-.135.453-.218.209.01.412 0 .61-.032.208-.041.411-.083.609-.125.208-.041.411-.078.609-.109.209-.042.417-.057.625-.047.344.01.683-.02 1.016-.094a3.687 3.687 0 011.016-.078c.239.01.474.032.703.063.239.02.479.026.718.015.136.063.256.12.36.172a.907.907 0 00.422.032c.333.28.635.609.906.984v.266c-.01.24-.052.473-.125.703a6.27 6.27 0 01-.266.687 9.283 9.283 0 01-.312.656c-.115.209-.224.417-.328.625-.677.615-1.354 1.224-2.032 1.829a42.575 42.575 0 01-2.093 1.75 1.11 1.11 0 01-.094.28 1.139 1.139 0 00-.063.266c0 .053.006.094.016.125a.38.38 0 01.188.125c.062.053.083.125.062.22h.141c.052 0 .078.02.078.062l.25.015c.396.021.791.01 1.187-.031.396-.042.792-.088 1.188-.14a52.76 52.76 0 011.203-.141c.396-.052.792-.084 1.187-.094.094-.031.193-.057.297-.078a.696.696 0 00.282-.125h.046c.073 0 .125.02.157.062a.292.292 0 00.172.079c.052 0 .104-.01.156-.032a1.23 1.23 0 01.187-.047c.146-.041.297-.067.453-.078.167-.01.329-.026.485-.047a26.254 26.254 0 011.797-.093 9.49 9.49 0 001.781-.235.424.424 0 00.219.156c.093.021.192.047.297.079.104.02.197.046.281.078a.28.28 0 01.187.187zm5.453-6.329a.663.663 0 00-.109.313 3.65 3.65 0 00-.016.312v.375c.011.115.016.23.016.344v.234a.982.982 0 01-.094.219.977.977 0 00-.093.219c-.146.385-.219.77-.219 1.156v.031c-.052.125-.104.24-.156.344l-.125.313a1.431 1.431 0 00-.11.688 3.968 3.968 0 01-.578.999c-.24.292-.474.594-.703.906a2.629 2.629 0 00-.609.328 5.112 5.112 0 00-.516.454c-.323.104-.641.223-.953.359a3.005 3.005 0 00-.844.547c-.198.02-.396.052-.594.093-.198.042-.39.105-.578.188h-.187c-.094 0-.162-.02-.203-.063a1.597 1.597 0 01-.422.157c-.146.02-.292.031-.438.031-.187 0-.375-.01-.562-.031-.177-.032-.36-.063-.547-.094a.938.938 0 00-.438-.328 12.833 12.833 0 01-.5-.235 4.763 4.763 0 01-.656-1.203 36.102 36.102 0 01-.422-1.328c.021-.146.057-.286.11-.422.052-.146.072-.302.062-.468a6.076 6.076 0 01.734-1.47 10.23 10.23 0 011.063-1.28c0-.063.01-.115.031-.157.031-.041.037-.104.016-.187.01.01.031.015.062.015.084 0 .136-.02.157-.062a.318.318 0 00.015-.172c.375-.24.714-.515 1.016-.828a4.359 4.359 0 011.062-.781.525.525 0 01.157-.235.697.697 0 00.171-.218 3.01 3.01 0 00.907-.422 6.39 6.39 0 01.859-.5c.167-.094.323-.157.469-.188.156-.041.323-.083.5-.125.062-.02.12-.036.172-.047a.875.875 0 01.172-.015c.187 0 .369.036.546.11.178.062.36.093.547.093h.125l.125-.031a1.7 1.7 0 00.672.5c.063.156.136.291.219.406l.281.344c.094.104.177.224.25.359a1 1 0 01.156.453zm-1.562.813a.552.552 0 00-.016-.141 1.504 1.504 0 01-.297-.125.627.627 0 00-.312-.078.553.553 0 00-.219.047c-.01-.073-.041-.125-.094-.156a.53.53 0 00-.156-.079.482.482 0 00-.172-.062.408.408 0 01-.14-.094 2.72 2.72 0 00-.11-.25.327.327 0 00-.187-.203 1.255 1.255 0 01-.328.234c-.125.052-.256.105-.391.157a3.15 3.15 0 00-.375.187 1.212 1.212 0 00-.297.266h-.281a.654.654 0 01-.266.265.813.813 0 00-.297.235 2.315 2.315 0 00-.468.312c-.136.115-.271.24-.407.375-.135.125-.27.255-.406.39-.125.136-.26.261-.406.376a4.14 4.14 0 01-.453.765c-.156.209-.307.422-.453.641a4.567 4.567 0 00-.36.719c-.093.25-.14.562-.14.937v.157c0 .052.005.104.015.156.136.146.245.302.328.469a.797.797 0 00.454.359c.208.083.427.12.656.11.239-.011.469.015.687.078.5-.094.979-.245 1.438-.454a8.08 8.08 0 001.328-.78c.062-.053.135-.105.219-.157a1.21 1.21 0 00.203-.188.656.656 0 00.125-.171c.041-.063.083-.12.125-.172a4.71 4.71 0 01.281-.407c.104-.135.214-.26.328-.375.052-.229.12-.447.203-.656.084-.219.167-.432.25-.64a4.48 4.48 0 00.203-.641c.063-.219.094-.448.094-.688 0-.052-.005-.109-.015-.171a.91.91 0 00-.016-.172.626.626 0 00.125-.375zm11.219-2.891c0 .177-.011.349-.032.516-.01.156-.041.323-.093.5a1.215 1.215 0 00-.25.265l-.219.297a5.805 5.805 0 01-.234.281.964.964 0 01-.313.204c-.104.458-.234.9-.391 1.328a7.645 7.645 0 00-.328 1.312c-.125.23-.224.48-.297.75-.072.271-.151.547-.234.828a8.51 8.51 0 01-.25.781c-.094.25-.224.475-.391.672-.083.25-.166.521-.25.813a1.56 1.56 0 01-.421.703c.01.02.015.052.015.094a.735.735 0 01-.094.36.632.632 0 00-.093.327c-.167.125-.328.271-.485.438-.146.166-.297.333-.453.5a3.267 3.267 0 01-.5.437c-.177.125-.37.209-.578.25a2.63 2.63 0 01-.406-.36 1.665 1.665 0 00-.438-.312 10.782 10.782 0 01-.156-1.375 11.78 11.78 0 00-.109-1.359c-.042-.26-.11-.51-.203-.75a2.204 2.204 0 01-.125-.734v-.157c.01-.062.02-.12.031-.171a.843.843 0 01-.203-.422 8.095 8.095 0 01-.078-.532 4.784 4.784 0 00-.094-.546 1.04 1.04 0 00-.188-.454.231.231 0 00.063-.171.435.435 0 00-.031-.157.753.753 0 01-.016-.156c0-.042.016-.089.047-.14a1.05 1.05 0 01-.172-.282 2.688 2.688 0 01-.047-.265l-.031-.282a1.58 1.58 0 00-.031-.297.255.255 0 00-.11-.156c-.041-.042-.062-.073-.062-.094a.15.15 0 01.062-.125 3.364 3.364 0 01-.359-.656 9.957 9.957 0 00-.313-.687.38.38 0 01.125-.266.52.52 0 00.157-.25h.5c.458.896.807 1.828 1.046 2.797a45.5 45.5 0 01.657 2.906c.052.281.099.563.14.844.052.281.11.568.172.86.021.062.052.13.094.202a.433.433 0 01.062.22.418.418 0 01-.046.187.383.383 0 01.14.171.913.913 0 01.094.235c.031.073.057.15.078.234.021.073.052.14.094.203a.487.487 0 00.328-.171c.094-.105.177-.225.25-.36.083-.146.156-.286.219-.422.073-.146.156-.26.25-.344a1.65 1.65 0 01.062-.328.993.993 0 00.063-.343c.104-.178.198-.344.281-.5.083-.157.135-.344.156-.563a.372.372 0 00.094-.094c.01-.03.057-.036.141-.015 0-.281.041-.552.125-.813.093-.27.218-.526.375-.765.02-.24.067-.48.14-.72.084-.25.177-.494.281-.733.032-.073.073-.157.125-.25a.63.63 0 00.079-.282.192.192 0 00-.032-.11.534.534 0 01-.015-.124c0-.083.031-.156.093-.219.063-.062.12-.125.172-.187 0-.24.026-.48.078-.72.053-.239.157-.447.313-.624.052-.354.12-.698.203-1.031a4.63 4.63 0 01.359-.985h.563c0-.198.088-.297.266-.297.104 0 .218.026.343.079.084.229.141.49.172.78.042.282.063.542.063.782zm3.343 8.984a1.316 1.316 0 01-.187.235 1.81 1.81 0 00-.203.203.63.63 0 01-.25.047h-.25a.765.765 0 00-.219 0 .211.211 0 00-.156.062.335.335 0 01-.188-.11c-.041-.062-.114-.098-.218-.108a.254.254 0 00-.125 0 5.627 5.627 0 01-.438-.563 77.345 77.345 0 00-.359-.563 11.516 11.516 0 00-.094-1.171 2.5 2.5 0 00-.047-.282 3.023 3.023 0 01-.047-.265c0-.104.005-.203.016-.297a4.2 4.2 0 00.047-.281c.041-.303.088-.6.14-.891.052-.292.099-.588.141-.89.042-.271.062-.553.062-.844 0-.302-.046-.584-.14-.844l-.016-.078c.021-.084.042-.151.063-.203a.654.654 0 00.062-.204c.021-.114-.005-.197-.078-.25.031-.083.083-.135.156-.156.073-.031.115-.093.125-.187a.24.24 0 000-.125c.084-.032.167-.058.25-.078a.47.47 0 01.266-.016.84.84 0 01.359.14c.104.063.203.136.297.22.167.5.235 1.03.203 1.593-.031.552-.083 1.11-.156 1.672-.073.563-.12 1.115-.141 1.656-.02.531.063 1.026.25 1.485l.032.015a.117.117 0 00.125-.047c.031-.052.073-.072.125-.062a.26.26 0 00.078.031c.041.209.109.406.203.594.094.187.198.375.312.562zm13.204-.671a.397.397 0 01-.094.265.847.847 0 01-.203.172 1.708 1.708 0 01-.235.14.973.973 0 00-.203.157.402.402 0 00-.094.156.144.144 0 01-.078.11.4.4 0 01-.203.093c-.073.01-.151.026-.234.047a.868.868 0 00-.219.063.346.346 0 00-.187.14c-.49.052-.974.12-1.454.203a8.284 8.284 0 01-1.453.125c-.093 0-.198.01-.312.032l-.297.03a14.134 14.134 0 01-1.297.063c-.302 0-.604-.01-.906-.03a8.357 8.357 0 01-.891-.142.935.935 0 00-.25-.124 10.41 10.41 0 00-.297-.094 2.056 2.056 0 01-.265-.11.409.409 0 01-.188-.187 1.32 1.32 0 01-.422-.094 3.281 3.281 0 01-.328-.172 7.647 7.647 0 00-.297-.219 1.672 1.672 0 00-.359-.187 6.67 6.67 0 00-.328-.422 1.292 1.292 0 00-.391-.36 3.098 3.098 0 00-.156-.593 9.717 9.717 0 00-.203-.578 5.909 5.909 0 01-.156-.594 2.345 2.345 0 01-.079-.61c0-.145.021-.322.063-.53.042-.209.094-.417.156-.626.073-.218.156-.421.25-.609a2.51 2.51 0 01.281-.453.427.427 0 01.11-.078.313.313 0 00.109-.094c.094-.104.193-.187.297-.25.104-.073.214-.156.328-.25a.414.414 0 00.094-.14.526.526 0 01.125-.141c.031-.021.073-.026.125-.016.062.01.115 0 .156-.031.042-.031.063-.068.063-.11 0-.041.015-.078.047-.109.01-.01.041-.01.093 0h.094c.073 0 .156-.047.25-.14a.917.917 0 01.234-.204.617.617 0 01.219-.078c.073-.02.151-.052.235-.093.114-.063.224-.11.328-.141.114-.042.229-.089.343-.14a.435.435 0 00.172-.11.469.469 0 01.157-.11c.093-.03.192-.051.296-.062.115-.02.219-.036.313-.047.104-.02.203-.041.297-.062a.748.748 0 00.281-.157h.125c.188 0 .37-.026.547-.078.177-.052.359-.078.547-.078.052 0 .13.01.234.032a.52.52 0 01.281-.079c.178 0 .355.047.532.141.177.083.359.125.547.125h.093a.508.508 0 00.125-.016c.115.115.25.177.407.188.166.01.307.057.421.14a.686.686 0 01.172.22c.052.083.094.171.125.265l.094.281a.931.931 0 00.125.25 1.42 1.42 0 01-.469.906c-.25.22-.567.329-.953.329-.146 0-.271-.016-.375-.047a6.083 6.083 0 01-.265-.125 4.577 4.577 0 00-.235-.125 1.111 1.111 0 00-.281-.094c.115-.208.187-.432.219-.672a1.464 1.464 0 00-.344-.11 1.21 1.21 0 01-.328-.109 6.06 6.06 0 01-.828.156c-.261.021-.506.13-.735.329a5.171 5.171 0 00-.172-.032.792.792 0 00-.156-.015c-.062 0-.187.047-.375.14-.187.084-.39.183-.609.297-.209.115-.412.23-.61.344-.187.115-.317.193-.39.234a.945.945 0 00-.219.188 4.61 4.61 0 00-.187.234l-.188.219a.588.588 0 01-.234.14.842.842 0 01-.11.297 9.312 9.312 0 01-.172.266c-.01.188-.031.375-.062.563a5.05 5.05 0 00-.031.562v.203c0 .063.01.12.031.172.104.136.187.287.25.453a.616.616 0 00.359.344c.011.042.006.068-.015.078-.011.01-.021.037-.032.078a.895.895 0 00.235.281c.104.063.208.13.312.204.104.062.203.13.297.203a.732.732 0 01.219.281c.156 0 .302.026.437.078.146.052.282.11.407.172l.375.172a.983.983 0 00.687.031c.271.084.542.146.813.188.281.03.562.046.843.046.344 0 .688-.02 1.032-.062.343-.042.687-.078 1.031-.11.125-.02.245-.03.359-.03.115 0 .229-.011.344-.032a.753.753 0 00.406-.203c.136-.115.266-.198.391-.25.115.073.25.11.406.11.177 0 .349-.027.516-.079.166-.062.338-.094.515-.094h.079z" fill="#4D4D4D"/><path d="M0 0h30c5.523 0 10 4.477 10 10v30H10C4.477 40 0 35.523 0 30V0z" fill="#28A9E0"/><path d="M26.898 28.8c-.026.261-.117.463-.273.606a.82.82 0 01-.605.235c-.13 0-.254-.02-.372-.059-.247.195-.54.345-.878.45-.339.103-.658.208-.957.312a9.672 9.672 0 01-1.075-.098 5.07 5.07 0 00-1.093-.039 1.035 1.035 0 00-.41-.176 4.732 4.732 0 00-.45-.058c-.143 0-.286-.02-.43-.059a.898.898 0 01-.39-.273h-.977c-.09 0-.228-.046-.41-.137-.17-.078-.364-.163-.586-.254a6.843 6.843 0 00-.683-.254 2.104 2.104 0 00-.665-.117h-.117a1.583 1.583 0 00-.508-.274 33.27 33.27 0 00-.566-.156 7.216 7.216 0 01-.566-.137 1.555 1.555 0 01-.469-.214 4.559 4.559 0 00-.45-.274.87.87 0 00-.527-.137 5.384 5.384 0 00-.78-.37c-.261-.105-.528-.202-.802-.294l-.8-.293a7.093 7.093 0 01-.782-.37.243.243 0 01-.136 0 .57.57 0 00-.137-.02c-.078 0-.124.026-.137.078a1.4 1.4 0 00-.312-.234 2.437 2.437 0 01-.313-.235l-.156.04H8.93c-.117 0-.235-.014-.352-.04a2.882 2.882 0 01-.312-.097c-.118.26-.196.553-.235.878-.039.326-.071.665-.097 1.016-.013.339-.033.677-.059 1.016a4.17 4.17 0 01-.176.957c.026.104.04.208.04.312v.332c0 .222.032.397.097.528-.026.117-.052.228-.078.332a2.632 2.632 0 01-.059.312c.013.143.02.274.02.39.013.131.02.268.02.41v.333c0 .117-.014.234-.04.352-.13.078-.26.15-.39.214-.13.078-.26.17-.391.274-.091-.17-.247-.267-.469-.293a.657.657 0 00-.117.254c-.013.117-.072.175-.176.175l-.449-.351a2.411 2.411 0 01-.39-.41.217.217 0 01-.02-.098c0-.065.013-.124.039-.176a.347.347 0 00.039-.156c0-.156-.02-.293-.059-.41a6.734 6.734 0 01-.078-.977c0-.221.013-.436.04-.644.038-.209.104-.423.195-.645.143-.377.24-.774.293-1.191.065-.417.11-.833.136-1.25.026-.43.04-.86.04-1.29.012-.429.038-.839.078-1.23a1.4 1.4 0 00-.332-.488c-.118-.13-.176-.332-.176-.605 0-.248.078-.437.234-.567.156-.143.293-.312.41-.508-.026-.078-.006-.13.059-.156l.234-2.05c.013-.144.033-.3.059-.47.039-.169.065-.325.078-.468.026-.3.039-.593.039-.879 0-.287.013-.573.04-.86.064-.637.123-1.269.175-1.894.065-.625.098-1.25.098-1.875 0-.3-.014-.599-.04-.898a5.31 5.31 0 00-.117-.899c-.221.065-.468.137-.742.215-.26.065-.482.182-.664.352h-.156c-.339 0-.658.065-.957.195-.287.13-.58.254-.88.371-.13.065-.26.11-.39.137-.13.013-.267.039-.41.078a.506.506 0 00-.215.117.832.832 0 01-.215.137l-.332.078c-.09.026-.13.085-.117.176.013.09-.02.15-.098.175a.37.37 0 01-.273.098 2.65 2.65 0 00-.273-.02H.98a10.23 10.23 0 01-.937.606c-.313.156-.677.26-1.094.313l-.43.273a.89.89 0 01-.488.137.703.703 0 01-.351-.078 1.76 1.76 0 01-.235-.528 1.281 1.281 0 00-.312-.508.533.533 0 00.137-.253c.013-.118.032-.222.058-.313.39-.17.788-.332 1.192-.488.39-.156.768-.345 1.132-.567a.997.997 0 00.527-.039c.105-.039.209-.084.313-.136.104-.053.209-.098.313-.137a.839.839 0 01.37-.04c.443-.247.912-.448 1.407-.605a6.244 6.244 0 001.406-.644c.065 0 .117.013.157.039.052.026.104.039.156.039.052 0 .084-.007.097-.02a.592.592 0 01.313-.214c.13-.053.26-.092.39-.118.144-.039.274-.084.391-.136a.47.47 0 00.254-.293c.065.052.163.078.293.078.221 0 .423-.046.606-.137a1.46 1.46 0 01.625-.137c.052 0 .097.013.136.04.052.012.104.019.157.019.104 0 .156-.033.156-.098a.303.303 0 01.117-.175 81.265 81.265 0 012.363-.391 16.439 16.439 0 012.403-.176.689.689 0 01.39-.117c.143 0 .274.039.39.117a11.426 11.426 0 011.329-.078c.508 0 1.029.033 1.562.098.534.065 1.062.169 1.582.312.534.13 1.042.313 1.524.547.482.221.93.488 1.348.8.039.118.09.235.156.352.065.118.15.209.254.274 0 .026-.007.045-.02.058v.059c0 .143.04.28.117.41.091.13.137.287.137.469s-.032.364-.098.547a1.572 1.572 0 00-.058.547c-.143.208-.267.397-.371.566-.091.17-.15.384-.176.645a4.566 4.566 0 00-.625.78c-.182.274-.371.548-.566.821-.183.26-.391.501-.625.723a2.633 2.633 0 01-.84.527c-.013.13-.065.274-.157.43h-.41a.437.437 0 01-.195.234l-.273.156a.853.853 0 00-.235.196.596.596 0 00-.078.332.218.218 0 00-.098-.02c-.13 0-.286.065-.468.196l-.41.312c-.222.156-.45.3-.684.43-.221.13-.417.312-.586.547-.52.221-1.016.481-1.484.78a6.722 6.722 0 01-1.524.684 2.336 2.336 0 01-.742.528c-.273.117-.54.247-.8.39v.059c0 .104.038.208.116.313.079.09.17.175.274.253.104.066.215.111.332.137.13.026.24.026.332 0 .26.235.56.423.898.567.339.143.69.273 1.055.39.365.117.723.241 1.074.371.352.13.677.293.977.489h.469c.299.26.65.455 1.054.585.417.13.814.248 1.192.352.156.143.351.254.586.332.247.065.481.098.703.098h.117a.433.433 0 00.137-.02v.04c0 .064.02.11.058.136l.117.04c.052 0 .098.012.137.038a.19.19 0 01.117.078h.196c.273 0 .533.059.78.176.248.104.509.156.782.156a.759.759 0 00.274-.039.296.296 0 01.175.156c.04.079.091.144.157.196.09-.013.175-.026.253-.04h.235c.286 0 .553.033.8.098.248.065.502.163.762.293.417-.182.827-.332 1.23-.449a4.602 4.602 0 011.29-.176v.04c0 .156.039.299.117.43.091.142.17.285.234.429zm-7.48-15.585a.628.628 0 00-.098-.371.736.736 0 00-.215-.235 2.415 2.415 0 00-.293-.214 1.172 1.172 0 01-.253-.254 12.9 12.9 0 01-.997-.352 8.927 8.927 0 00-.996-.332 6.984 6.984 0 00-.507-.098 2.25 2.25 0 00-.508-.058h-.43a11.102 11.102 0 00-.254-.04 1.545 1.545 0 00-.234-.058 7.804 7.804 0 00-1.074-.078c-.339 0-.677.013-1.016.04l-1.016.077c-.143.013-.293.02-.449.02-.156 0-.3.013-.43.039a1.421 1.421 0 00-.273.097c-.117.04-.24.085-.371.137-.13.04-.26.085-.39.137a2.447 2.447 0 01-.313.117c.013.091.02.182.02.274v.253c0 .196-.007.391-.02.586-.013.196-.04.391-.078.586a1.542 1.542 0 01-.059.235 1.546 1.546 0 00-.059.234c-.026.117-.039.247-.039.39v.372c-.026.3-.045.592-.058.879-.013.286-.033.58-.059.879-.078.859-.163 1.712-.254 2.558-.078.846-.13 1.7-.156 2.559a5.69 5.69 0 001.23-.41c.391-.183.775-.378 1.153-.586.377-.222.755-.437 1.133-.645a7.523 7.523 0 011.191-.527 1.36 1.36 0 01.371-.352c.156-.09.287-.208.39-.351.131 0 .229-.026.294-.078a.532.532 0 01.254-.137 30.056 30.056 0 011.914-1.543 23.607 23.607 0 001.875-1.543c.052-.182.136-.358.254-.527.13-.183.254-.365.37-.547.118-.183.222-.365.313-.547.091-.183.137-.378.137-.586z" fill="#fff"/><path d="M38.773 14.367c0 .742-.097 1.426-.293 2.051a9.931 9.931 0 01-.761 1.797c-.3.573-.625 1.14-.977 1.7-.351.559-.683 1.151-.996 1.776-.078 0-.137.02-.176.059a.868.868 0 00-.078.156.44.44 0 01-.078.157c-.026.039-.078.058-.156.058-.117.287-.267.56-.45.82-.182.248-.377.495-.585.743-.196.234-.391.475-.586.722a5.48 5.48 0 00-.489.801h-.195a16.037 16.037 0 01-2.383 2.734c-.872.808-1.83 1.53-2.87 2.168a.49.49 0 01-.118.196c-.052.052-.065.123-.039.215a1.366 1.366 0 00-.371.293l-.274.39c-.09.13-.188.254-.293.371a.832.832 0 01-.37.293c-.196-.039-.385-.071-.567-.098a6.54 6.54 0 00-.527-.058h-.235a.595.595 0 01-.215 0 .757.757 0 01-.37-.176c-.092-.078-.229-.117-.41-.117a.929.929 0 00-.216.02 5.992 5.992 0 00-.37-.567 1.018 1.018 0 01-.196-.605c0-.17.02-.326.058-.47.053-.142.079-.292.079-.448 0-.313-.059-.619-.176-.918a2.777 2.777 0 01-.156-.918c0-.105.013-.202.039-.293.026-.104.039-.209.039-.313a.407.407 0 00-.157-.312.612.612 0 01.079-.196.41.41 0 00.058-.214.936.936 0 00.02-.332 3.574 3.574 0 01-.02-.352c0-.273.013-.547.04-.82.025-.274.084-.54.175-.801a1.031 1.031 0 00-.059-.215l-.078-.195c.091-.274.15-.58.176-.918.026-.339.04-.677.04-1.016V20.5c0-.339.019-.658.058-.957.026-.13.052-.254.078-.371.039-.13.058-.254.058-.371a.605.605 0 00-.058-.274 1.03 1.03 0 00-.156-.254c.09-.026.143-.078.156-.156.013-.091.02-.17.02-.234 0-.182-.033-.384-.098-.606.052-.221.084-.442.097-.664.013-.234.02-.462.02-.683 0-.782-.052-1.55-.156-2.305a26.538 26.538 0 01-.176-2.285h-.059a.351.351 0 00-.215.058 1.48 1.48 0 00-.156.137c-.052.04-.11.078-.176.117a.453.453 0 01-.234.02 2.37 2.37 0 01-.547.469c-.195.13-.404.247-.625.351-.221.104-.449.202-.683.293-.235.078-.456.156-.665.235a1.143 1.143 0 01-.468-.313 11.69 11.69 0 01-.371-.469.643.643 0 01-.02-.156v-.156c0-.365.085-.638.254-.82.17-.196.352-.424.547-.684h.098c.065 0 .123.013.175.039.04.026.091.039.157.039h.058a5.03 5.03 0 011.192-.742c.43-.196.872-.345 1.328-.45.195-.195.39-.344.586-.449a1.595 1.595 0 01.937-.136c.091 0 .17.006.235.02a18.707 18.707 0 011.503-.626c.482-.182 1.036-.273 1.66-.273.079 0 .13-.02.157-.059a.777.777 0 00.098-.117c.026-.052.052-.098.078-.137.026-.039.071-.058.136-.058 0 .026.007.065.02.117.013.052.045.078.098.078a.24.24 0 00.136-.04.286.286 0 01.176-.058c.065 0 .11.046.137.137.143-.091.28-.176.41-.254a1.57 1.57 0 01.43-.176c.195.04.39.072.586.098a5.033 5.033 0 001.093.02.804.804 0 00.41-.196c.053-.013.079.013.079.078.117.104.24.176.37.215.13.026.268.046.41.059.144 0 .287.006.43.02a.828.828 0 01.391.136.533.533 0 01.254.137c.065.052.15.097.254.136.078.027.182.046.313.059a.77.77 0 01.312.078c.065.026.098.072.098.137.013.052.052.098.117.137.117.09.273.15.469.175a.952.952 0 01.507.176c.052.287.196.475.43.567.234.09.462.182.684.273.078.078.104.17.078.273.156.118.293.248.41.391.13.143.247.3.352.469.117.156.227.312.331.469.105.156.228.3.372.43a.436.436 0 00.039.273c.052.065.065.162.039.293.156.143.3.332.43.566a.69.69 0 00-.118.39c0 .13.02.261.059.391.039.13.058.26.058.391v.45zm-1.816-.43c0-.377-.072-.742-.215-1.093a13.19 13.19 0 01-.37-1.074c-.17 0-.28-.06-.333-.176a.654.654 0 00-.234-.332c-.248-.052-.404-.241-.47-.567-.26-.104-.526-.221-.8-.351a1.873 1.873 0 01-.683-.547c-.47-.143-.944-.287-1.426-.43a4.541 4.541 0 00-1.446-.234c-.09 0-.175.006-.253.02h-.196c-.104 0-.215.019-.332.058-.117.039-.228.059-.332.059a.63.63 0 01-.351-.118 3.57 3.57 0 01-.86.332c-.3.078-.605.15-.918.215a7.235 7.235 0 00-.918.215 2.38 2.38 0 00-.8.371 1.543 1.543 0 00-.43-.078.428.428 0 00-.274.078.188.188 0 00-.078.098c0 .039-.006.084-.02.137 0 .039-.012.071-.038.097-.026.026-.078.033-.157.02a.728.728 0 01-.02.175v.176c0 .339.034.677.099 1.016.078.325.117.657.117.996 0 .117-.007.24-.02.371a1.7 1.7 0 01-.078.352c.065.156.098.325.098.507.013.183.02.365.02.547 0 .183.006.365.019.547.013.17.058.332.137.489-.04.195-.066.39-.079.585-.013.196-.02.391-.02.586 0 .456.02.905.06 1.348.052.443.078.892.078 1.348 0 .117-.007.24-.02.37 0 .131-.006.261-.02.391a2.09 2.09 0 01-.136.489 1.307 1.307 0 00-.098.508c0 .117.007.24.02.37.013.118.02.241.02.372a.643.643 0 01-.02.156v.137c-.065.455-.117.918-.157 1.386-.039.47-.058.931-.058 1.387a21.333 21.333 0 00.156 2.559.618.618 0 00-.078.312c0 .182.046.365.137.547a.71.71 0 00.41.39c.416-.156.8-.364 1.152-.624.365-.248.73-.502 1.094-.762.091-.065.228-.15.41-.254.182-.117.306-.202.371-.254a.878.878 0 00.156-.156c.053-.065.111-.13.176-.195l.86-.918c.494-.508.983-1.022 1.464-1.543.495-.521.951-1.075 1.368-1.66.117-.183.234-.359.351-.528.117-.182.228-.37.332-.566a.69.69 0 00.117-.215.532.532 0 01.137-.235 1.48 1.48 0 01.137-.156.886.886 0 00.156-.156 11.365 11.365 0 00.605-.762c.287-.416.554-.833.801-1.25.248-.43.521-.853.82-1.27.027-.26.079-.5.157-.722.078-.234.156-.456.234-.664.078-.221.144-.45.196-.684a2.54 2.54 0 00.039-.78c.065-.092.117-.157.156-.196.052-.04.078-.117.078-.234v-.332z" fill="#fff"/></g><defs><clipPath id="clip0"><path fill="#fff" d="M0 0h252v40H0z"/></clipPath></defs></svg>