<?xml version="1.0" standalone="no"?>
<!DOCTYPE svg PUBLIC "-//W3C//DTD SVG 20010904//EN"
 "http://www.w3.org/TR/2001/REC-SVG-20010904/DTD/svg10.dtd">
<svg version="1.0" xmlns="http://www.w3.org/2000/svg"
 width="512.000000pt" height="512.000000pt" viewBox="0 0 512.000000 512.000000"
 preserveAspectRatio="xMidYMid meet">
<metadata>
Created by potrace 1.14, written by Peter Selinger 2001-2017
</metadata>
<g transform="translate(0.000000,512.000000) scale(0.100000,-0.100000)"
fill="#000000" stroke="none">
<path d="M3 3113 c1 -1105 7 -2024 11 -2043 36 -156 71 -260 122 -363 126
-250 329 -451 579 -572 132 -65 215 -92 349 -116 94 -16 237 -17 2079 -18
l1977 -1 -1 1977 c0 1213 -4 2001 -10 2038 -5 33 -19 96 -30 140 -122 486
-523 858 -1019 945 -100 17 -207 18 -2083 19 l-1977 1 3 -2007z"/>
</g>
</svg>
